<?xml version="1.0" standalone="yes"?>
<svg xmlns="http://www.w3.org/2000/svg" width="450" height="250">
<path style="fill:#050404; stroke:none;" d="M0 0L0 250L450 250L450 0L0 0z"/>
<path style="fill:#ba272a; stroke:none;" d="M82 36L82 38L84 38L84 36L82 36z"/>
<path style="fill:#a35356; stroke:none;" d="M75 39L76 40L75 39z"/>
<path style="fill:#ba272a; stroke:none;" d="M76 39L69 42L69 43C71.5182 42.7249 77.1835 42.1824 76 39z"/>
<path style="fill:#a35356; stroke:none;" d="M70.6667 41.3333L71.3333 41.6667L70.6667 41.3333z"/>
<path style="fill:#ba272a; stroke:none;" d="M50 123C60.4244 116.2 68.5739 117.665 74 130L73 130C71.8683 127.838 70.7984 126 68.892 124.39C51.7239 109.887 42.3408 158.117 68 150L68 151C63.0548 152.568 56.9868 152.087 56 158L57 158L58 156L58 161C60.4079 161 61.7556 165.633 64 167.667C68.0594 171.345 86.9499 178.487 90 171L93 172L94 169C115.488 169.334 116.696 134.854 109 122L105 122L104 127C98.942 128.766 95.408 134.615 90.0039 135.342C81.0521 136.546 84.2637 125.674 88.0548 122.214C92.2146 118.417 98.8239 118.455 102 114L97 116L99 113L95 112L97 106C100.922 103.663 101.761 100.379 101 96C107.7 91.223 108.051 61.5668 101 57C102.226 50.2465 97.0366 46.6893 93 42C58.8338 53.3939 50 91.1164 50 123z"/>
<path style="fill:#a35356; stroke:none;" d="M93 43L94 44L93 43z"/>
<path style="fill:#ba272a; stroke:none;" d="M65 45L67 47L67 45L65 45M61.3333 48.6667L61.6667 49.3333L61.3333 48.6667M57 52L48 67L44 86L42 85L43 130L44 130L43 128L44 128L46 137L47 137C47 107.564 46.4118 79.2187 60 52L57 52z"/>
<path style="fill:#a35356; stroke:none;" d="M102 54L103 55L102 54z"/>
<path style="fill:#739999; stroke:none;" d="M113 54L114 55L113 54z"/>
<path style="fill:#a35356; stroke:none;" d="M101.333 55.6667L101.667 56.3333L101.333 55.6667z"/>
<path style="fill:#050404; stroke:none;" d="M56 60L57 61L56 60z"/>
<path style="fill:#a35356; stroke:none;" d="M40 64L40 73L46 73L50 67L40 64M104 64C106.428 72.4613 107.412 89.2852 101 96L97 106L96 112L99 113L97 116C106.077 113.497 104 103.476 104 96L111 96L112 77L107 80L107 73L112 74L112 64L104 64z"/>
<path style="fill:#739999; stroke:none;" d="M122 71L123 72L122 71z"/>
<path style="fill:#e9c1c3; stroke:none;" d="M105.333 72.6667L105.667 73.3333L105.333 72.6667z"/>
<path style="fill:#a35356; stroke:none;" d="M122 72L123 73L122 72z"/>
<path style="fill:#739999; stroke:none;" d="M107 73L107 80L112 74L107 73z"/>
<path style="fill:#a35356; stroke:none;" d="M43 79L40 81L41 96L42 96C42 91.8818 40.7584 85.1896 44 86L43 79z"/>
<path style="fill:#739999; stroke:none;" d="M255 79L255 80L258 80L255 79z"/>
<path style="fill:#a35356; stroke:none;" d="M258.667 79.3333L259.333 79.6667L258.667 79.3333M196 80L197 81L196 80z"/>
<path style="fill:#e9c1c3; stroke:none;" d="M262 80L263 81L262 80M105 81L106 82L105 81M43 84L44 85L43 84z"/>
<path style="fill:#739999; stroke:none;" d="M122.333 85.6667L122.667 86.3333L122.333 85.6667z"/>
<path style="fill:#a35356; stroke:none;" d="M118.333 89.6667L118.667 90.3333L118.333 89.6667z"/>
<path style="fill:#739999; stroke:none;" d="M117 92L118 93L117 92z"/>
<path style="fill:#a35356; stroke:none;" d="M117 93L118 94L117 93M150.667 93.3333L151.333 93.6667L150.667 93.3333M41.3333 97.6667L41.6667 98.3333L41.3333 97.6667M41.3333 101.667L41.6667 102.333L41.3333 101.667M118 101L119 102L118 101M268 101L268 104L269 104L268 101z"/>
<path style="fill:#739999; stroke:none;" d="M165 104L166 105L165 104M352 105L353 106L352 105z"/>
<path style="fill:#a35356; stroke:none;" d="M35 106L36 107L35 106M135 107L136 108L135 107z"/>
<path style="fill:#739999; stroke:none;" d="M134 109L135 110L134 109z"/>
<path style="fill:#a35356; stroke:none;" d="M215 110L216 111L215 110z"/>
<path style="fill:#050404; stroke:none;" d="M95 111L96 112L95 111z"/>
<path style="fill:#a35356; stroke:none;" d="M254 111L255 112L254 111M323 111L324 112L323 111M328 111L329 112L328 111z"/>
<path style="fill:#050404; stroke:none;" d="M100 112L101 113L100 112z"/>
<path style="fill:#a35356; stroke:none;" d="M108 112L109 113L108 112M97 113L98 114L97 113M101.667 115.333L102.333 115.667L101.667 115.333M94 116L95 117L94 116M41 118L42 119L41 118z"/>
<path style="fill:#ba272a; stroke:none;" d="M92 122C89.1748 122.486 84.4246 124.84 87 128L86 134C94.6256 133.223 99.1551 127.605 104 121L103 119L92 122z"/>
<path style="fill:#a35356; stroke:none;" d="M98.6667 119.333L99.3333 119.667L98.6667 119.333M102.667 120.333L103.333 120.667L102.667 120.333M41 121L41 127L42 127L41 121M91 121L92 122L91 121M106.667 122.333L107.333 122.667L106.667 122.333M108 123L109 124L108 123M100 124L101 125L100 124M110 124L111 125L110 124z"/>
<path style="fill:#050404; stroke:none;" d="M42 125L43 126L42 125z"/>
<path style="fill:#a35356; stroke:none;" d="M111 125L112 126L111 125M103 126L104 127L103 126M43 128L44 131L45 131L45 128L43 128M85 128L87 132L87 128L85 128M111.333 128.667L111.667 129.333L111.333 128.667z"/>
<path style="fill:#050404; stroke:none;" d="M74 130L74 133L75 133L74 130z"/>
<path style="fill:#a35356; stroke:none;" d="M35.3333 131.667L35.6667 132.333L35.3333 131.667M121 134L122 135L121 134M113 136L111 152L120 152L120 136L113 136M122 136L123 137L122 136M301 136L301 139L302 139L301 136M46 137L47 138L46 137M39 138L40 139L39 138z"/>
<path style="fill:#739999; stroke:none;" d="M402.333 138.667L402.667 139.333L402.333 138.667z"/>
<path style="fill:#a35356; stroke:none;" d="M47.6667 139.333L48.3333 139.667L47.6667 139.333z"/>
<path style="fill:#e9c1c3; stroke:none;" d="M279 139L280 140L279 139z"/>
<path style="fill:#a35356; stroke:none;" d="M279 140L280 141L279 140M301 140L301 143L302 143L301 140M48 142L49 143L48 142z"/>
<path style="fill:#e9c1c3; stroke:none;" d="M152 143L153 144L152 143z"/>
<path style="fill:#a35356; stroke:none;" d="M279.333 143.667L279.667 144.333L279.333 143.667M402 143L402 146L403 146L402 143M238 144L238 149L239 149L238 144z"/>
<path style="fill:#739999; stroke:none;" d="M244 144L244 147L245 147L244 144z"/>
<path style="fill:#a35356; stroke:none;" d="M374 144L375 145L374 144M317 145L318 146L317 145z"/>
<path style="fill:#e9c1c3; stroke:none;" d="M374.333 145.667L374.667 146.333L374.333 145.667z"/>
<path style="fill:#a35356; stroke:none;" d="M279 146L280 147L279 146z"/>
<path style="fill:#739999; stroke:none;" d="M402 146L402 149L403 149L402 146M279 147L280 148L279 147z"/>
<path style="fill:#a35356; stroke:none;" d="M350.333 148.667L350.667 149.333L350.333 148.667z"/>
<path style="fill:#739999; stroke:none;" d="M372 149L373 150L372 149z"/>
<path style="fill:#e9c1c3; stroke:none;" d="M316 150L317 151L316 150z"/>
<path style="fill:#a35356; stroke:none;" d="M374 150L375 151L374 150M56 153L57 154L56 153M130.333 154.667L130.667 155.333L130.333 154.667M57 156L59 159L57 156M110 156C108.31 161.426 99.3781 167.787 94 169L93 172L90 171L75 173L75 176L76 176L104 176L104 168L112 168L112 156L110 156M59.3333 160.667L59.6667 161.333L59.3333 160.667z"/>
<path style="fill:#739999; stroke:none;" d="M121 161L122 162L121 161z"/>
<path style="fill:#a35356; stroke:none;" d="M128.667 161.333L129.333 161.667L128.667 161.333M131.667 161.333L132.333 161.667L131.667 161.333M121 162L122 163L121 162M61 163L62 164L61 163z"/>
<path style="fill:#739999; stroke:none;" d="M111 163L112 164L111 163M56 164L57 165L56 164z"/>
<path style="fill:#a35356; stroke:none;" d="M133 164L133 165L136 165L133 164M57 166L58 167L57 166M62.6667 167.333L63.3333 167.667L62.6667 167.333M65.3333 168.667L65.6667 169.333L65.3333 168.667M67 171L68 172L67 171M69 172L70 173L69 172M73 172L74 173L73 172M61.3333 173.667L61.6667 174.333L61.3333 173.667M66 174L67 175L66 174M70 174L71 175L70 174M107 174L108 175L107 174M66 176L67 177L66 176M88 179L88 180L91 180L88 179z"/>
<path style="fill:#739999; stroke:none;" d="M91 179L92 180L91 179z"/>
<path style="fill:#a35356; stroke:none;" d="M92.6667 179.333L93.3333 179.667L92.6667 179.333M109 180L110 181L109 180M66 182L67 183L66 182M85 183L86 184L85 183M102 183L103 184L102 183z"/>
<path style="fill:#739999; stroke:none;" d="M88 184L88 192L96 192L96 184L88 184z"/>
<path style="fill:#a35356; stroke:none;" d="M92 184L92 185L95 185L92 184z"/>
</svg>
