<?xml version="1.0" standalone="no"?>
<!DOCTYPE svg PUBLIC "-//W3C//DTD SVG 20010904//EN"
 "http://www.w3.org/TR/2001/REC-SVG-20010904/DTD/svg10.dtd">
<svg version="1.0" xmlns="http://www.w3.org/2000/svg"
 width="2400.000000pt" height="851.000000pt" viewBox="0 0 2400.000000 851.000000"
 preserveAspectRatio="xMidYMid meet">

<g transform="translate(0.000000,851.000000) scale(0.100000,-0.100000)"
fill="#000000" stroke="none">
<path d="M4335 8455 c-75 -57 -111 -93 -174 -175 -142 -189 -251 -496 -251
-712 0 -68 10 -65 -150 -42 -150 21 -536 30 -701 15 -672 -61 -1286 -305
-1804 -717 -146 -116 -428 -400 -539 -544 -49 -63 -129 -176 -178 -250 -100
-152 -266 -479 -327 -645 -217 -587 -265 -1216 -141 -1835 179 -893 727 -1681
1511 -2171 140 -87 413 -222 574 -282 232 -88 531 -161 755 -187 52 -6 110
-13 127 -16 l33 -5 2 -439 3 -440 65 41 c73 46 194 160 246 230 l34 47 -2
3081 -3 3082 -50 -68 c-106 -142 -173 -274 -224 -438 -70 -228 -64 -17 -68
-2607 l-4 -2338 -87 0 c-189 0 -490 48 -717 114 -604 175 -1172 596 -1518
1123 -491 750 -622 1687 -361 2603 106 372 300 771 534 1096 170 235 460 537
680 708 505 392 1049 618 1664 692 139 17 471 23 569 10 l57 -7 0 -2815 c0
-1548 4 -2814 8 -2814 21 0 163 109 224 172 121 124 206 276 249 447 19 74 19
143 17 3100 l-3 3024 -50 -38z"/>
<path d="M8153 5383 c-18 -2 -33 -7 -33 -10 0 -3 16 -23 35 -44 55 -61 58 -51
-99 -402 -36 -81 -157 -378 -270 -660 -208 -522 -322 -789 -371 -872 -15 -26
-47 -61 -71 -78 -35 -25 -41 -33 -29 -40 19 -10 570 -5 581 6 4 4 -11 23 -34
43 -57 48 -55 70 18 225 33 69 60 131 60 137 0 5 16 24 35 41 l36 31 427 -2
427 -3 83 -167 c99 -198 102 -217 44 -269 -40 -35 -41 -37 -19 -43 32 -8 564
-6 612 3 l40 7 -31 17 c-64 33 -103 100 -334 565 -370 745 -379 764 -449 1014
-33 119 -74 251 -91 293 -16 41 -30 84 -30 95 0 11 16 38 36 60 20 22 34 44
30 48 -8 8 -550 12 -603 5z m335 -790 c23 -48 91 -196 151 -328 102 -225 107
-240 88 -248 -31 -11 -400 -21 -509 -13 -78 6 -98 11 -98 23 0 27 109 281 206
482 71 146 97 191 107 183 7 -6 31 -50 55 -99z"/>
<path d="M16632 5358 c3 -30 7 -33 42 -39 22 -4 45 -15 53 -25 11 -14 13 -192
13 -968 0 -523 -4 -956 -8 -962 -11 -18 -48 -34 -76 -34 -22 0 -26 -4 -26 -30
l0 -30 820 0 820 0 0 165 0 165 -560 0 -560 0 0 844 c0 930 -5 861 63 875 27
6 32 12 35 39 l3 32 -311 0 -311 0 3 -32z"/>
<path d="M2549 4785 c-125 -165 -213 -359 -262 -583 -20 -95 -21 -118 -24
-1280 l-4 -1183 63 40 c80 51 181 142 236 213 l42 55 -2 1399 -3 1399 -46 -60z"/>
<path d="M14436 4633 c-8 -49 -8 -124 0 -201 l7 -61 29 22 c27 20 44 22 200
26 94 1 199 0 234 -4 l64 -7 0 -517 c0 -539 -2 -571 -42 -592 -17 -9 -18 -13
-7 -20 16 -10 312 -12 347 -3 l23 7 -23 24 -23 25 0 536 0 537 233 3 c223 2
235 1 263 -18 l29 -21 0 150 c0 83 -3 151 -6 151 -3 0 -14 -10 -24 -22 l-18
-23 -615 0 -615 0 -25 23 -24 23 -7 -38z"/>
<path d="M9767 4590 c17 -16 33 -44 37 -61 10 -53 7 -1131 -4 -1168 -5 -19
-22 -47 -37 -63 l-27 -28 535 0 c436 0 546 3 597 15 195 46 303 174 305 360 1
141 -49 234 -159 297 -30 16 -54 34 -54 38 0 5 16 18 35 30 96 59 141 160 132
293 -9 131 -63 214 -175 271 -87 43 -124 46 -684 46 l-532 0 31 -30z m987
-198 c65 -22 89 -56 94 -130 6 -81 -21 -133 -80 -157 -55 -23 -278 -35 -510
-27 l-168 5 0 164 0 163 308 0 c263 -1 314 -3 356 -18z m6 -543 c57 -19 97
-55 115 -104 31 -79 3 -187 -57 -224 -56 -35 -119 -41 -425 -41 l-303 0 0 189
c0 172 2 190 18 195 35 11 616 -2 652 -15z"/>
<path d="M11370 4613 c0 -5 9 -21 20 -38 19 -29 20 -48 20 -638 l0 -608 -25
-25 c-14 -14 -25 -27 -25 -29 0 -3 88 -5 195 -5 l195 0 -27 42 c-28 41 -28 42
-31 242 -2 111 -1 225 3 254 l6 52 400 0 399 0 5 -23 c3 -12 5 -129 3 -259 -3
-227 -4 -238 -25 -267 -13 -17 -23 -33 -23 -36 0 -7 335 -6 354 1 14 5 13 9
-4 34 -19 27 -20 45 -20 639 l0 612 25 25 c14 14 25 27 25 29 0 3 -89 5 -197
5 l-196 0 20 -22 c41 -45 43 -61 43 -282 0 -184 -2 -217 -16 -231 -15 -14 -58
-16 -399 -13 -211 2 -387 7 -392 11 -10 11 -17 375 -8 435 4 27 16 54 31 69
13 13 24 26 24 28 0 3 -85 5 -190 5 -104 0 -190 -3 -190 -7z"/>
<path d="M13557 4613 c-16 -4 -15 -8 8 -35 14 -16 25 -36 25 -44 0 -28 -42
-120 -295 -647 -235 -491 -262 -541 -303 -577 l-45 -40 219 0 218 0 -32 33
c-19 20 -32 43 -32 59 0 14 26 77 58 140 l57 113 311 3 c286 2 312 1 325 -15
8 -10 39 -69 68 -130 49 -104 53 -115 41 -142 -6 -16 -18 -32 -26 -35 -8 -3
-14 -10 -14 -16 0 -11 347 -14 411 -4 l37 6 -39 35 c-32 29 -88 134 -320 602
-154 311 -283 581 -286 599 -4 25 0 41 16 62 11 16 21 32 21 35 0 6 -397 5
-423 -2z m217 -355 c20 -30 195 -416 202 -445 l6 -23 -227 0 -226 0 6 23 c29
94 201 467 216 467 5 0 15 -10 23 -22z"/>
<path d="M15916 4589 l29 -30 0 -613 c0 -561 -1 -614 -17 -638 -15 -23 -16
-27 -2 -32 21 -8 263 -8 303 0 31 6 31 7 14 26 -17 19 -18 61 -21 624 -2 513
0 609 12 639 8 19 20 35 25 35 6 0 11 5 11 10 0 6 -71 10 -192 10 l-192 0 30
-31z"/>
<path d="M4282 1280 c-176 -74 -428 -150 -634 -190 l-58 -11 0 -95 0 -95 53 6
c265 31 457 69 665 131 l82 25 0 134 c0 74 -3 135 -7 135 -5 -1 -50 -19 -101
-40z"/>
</g>
</svg>
