<?xml version="1.0" standalone="no"?>
<!DOCTYPE svg PUBLIC "-//W3C//DTD SVG 20010904//EN"
 "http://www.w3.org/TR/2001/REC-SVG-20010904/DTD/svg10.dtd">
<svg version="1.0" xmlns="http://www.w3.org/2000/svg"
 width="1600.000000pt" height="1420.000000pt" viewBox="0 0 1600.000000 1420.000000"
 preserveAspectRatio="xMidYMid meet">

<g transform="translate(0.000000,1420.000000) scale(0.100000,-0.100000)"
fill="#000000" stroke="none">
<path d="M12050 13160 c0 -5 5 -10 11 -10 5 0 7 5 4 10 -3 6 -8 10 -11 10 -2
0 -4 -4 -4 -10z"/>
<path d="M12006 13144 c-17 -12 -17 -14 -4 -14 9 0 20 5 23 11 11 17 2 18 -19
3z"/>
<path d="M11950 13105 c-7 -8 -19 -15 -27 -15 -7 0 -16 -7 -19 -15 -3 -8 -22
-25 -42 -37 -21 -12 -52 -37 -71 -55 -19 -18 -40 -33 -48 -33 -7 0 -13 -4 -13
-9 0 -5 -42 -51 -92 -103 -107 -109 -142 -148 -174 -199 -13 -21 -27 -39 -31
-40 -7 -4 -27 -32 -108 -159 -38 -60 -115 -207 -115 -222 0 -7 -9 -24 -20 -38
-11 -14 -20 -32 -20 -40 0 -8 -9 -32 -20 -53 -11 -20 -30 -72 -41 -115 -12
-42 -25 -81 -29 -87 -11 -13 -41 -154 -50 -236 -5 -36 -13 -84 -19 -105 -16
-63 -23 -348 -12 -464 20 -190 62 -432 81 -455 4 -5 18 -46 29 -90 12 -44 28
-89 35 -100 7 -11 19 -38 26 -60 18 -56 132 -274 175 -335 19 -27 35 -53 35
-56 0 -3 17 -27 39 -53 21 -25 40 -51 42 -57 2 -7 46 -59 96 -117 94 -107 331
-320 391 -351 17 -9 32 -20 32 -24 0 -4 21 -18 48 -32 26 -13 68 -39 94 -57
26 -18 51 -33 55 -33 4 0 53 -22 109 -50 56 -27 107 -50 114 -50 6 0 36 -11
66 -25 30 -14 62 -25 72 -25 10 0 26 -6 37 -14 11 -7 38 -16 60 -19 47 -7 161
-31 260 -55 102 -24 548 -24 650 0 90 22 210 48 255 54 19 3 49 12 67 20 17 8
37 14 45 14 7 0 26 7 42 15 16 9 64 27 105 42 42 14 78 29 81 33 3 4 22 13 43
21 20 7 37 17 37 21 0 4 8 8 18 8 10 0 27 7 37 15 34 25 88 59 138 85 26 14
47 28 47 32 0 3 17 17 38 29 45 28 68 47 97 77 12 12 27 22 32 22 5 0 17 8 27
19 15 17 15 19 0 31 -13 11 -17 11 -24 0 -5 -7 -17 -11 -30 -7 -17 4 -19 3
-10 -8 8 -10 8 -15 -1 -21 -7 -4 -9 -3 -5 4 12 19 -18 20 -56 1 -43 -22 -48
-23 -48 -9 0 6 7 10 15 10 8 0 15 7 15 16 0 13 -3 14 -13 5 -8 -6 -38 -10 -67
-8 -44 3 -54 7 -55 23 -3 34 -18 69 -36 85 -23 20 -25 39 -4 39 26 0 19 57 -9
75 -18 12 -24 25 -24 46 1 17 -4 35 -10 41 -7 7 -12 21 -11 33 0 19 1 19 16
-2 20 -30 31 -29 25 2 -2 14 -8 25 -13 25 -18 0 -9 60 11 77 15 13 19 25 14
49 -4 25 -2 34 13 42 14 8 15 14 6 23 -6 6 -9 18 -6 26 4 9 -3 16 -17 20 l-23
6 24 19 c16 13 20 21 11 25 -9 3 -6 13 9 35 18 25 19 32 8 39 -8 5 -9 9 -3 9
18 0 23 35 8 55 -18 24 -18 35 1 35 18 0 21 46 3 54 -10 5 -10 7 0 12 15 7 16
36 1 51 -6 6 -12 38 -14 70 -1 32 -6 67 -10 78 -5 16 -5 17 4 5 9 -13 11 -13
11 3 0 9 -4 17 -10 17 -5 0 -10 7 -10 16 0 8 5 12 10 9 19 -12 10 26 -16 65
-18 28 -25 48 -21 67 5 26 -23 139 -43 175 -6 10 -10 40 -10 68 0 38 -4 50
-15 50 -8 0 -16 8 -17 18 0 9 -2 37 -4 61 -2 24 -8 49 -13 54 -6 6 -11 19 -11
29 0 10 -4 18 -10 18 -5 0 -10 13 -10 29 0 16 -7 35 -16 42 -9 7 -20 23 -25
36 -5 13 -16 23 -25 23 -8 0 -14 6 -12 12 3 7 -6 34 -19 59 -13 26 -23 54 -23
62 0 8 -7 20 -15 27 -8 7 -15 21 -15 31 0 11 -6 19 -12 19 -9 0 -8 4 2 10 13
8 12 10 -2 10 -10 0 -18 7 -18 15 0 22 -2 26 -32 56 -16 15 -28 37 -28 49 0
11 -7 23 -15 26 -9 4 -15 19 -15 35 0 16 -5 29 -10 29 -6 0 -23 26 -38 58 -15
31 -33 63 -40 71 -8 8 -24 31 -38 52 -13 20 -32 40 -43 44 -11 3 -30 24 -43
46 -12 21 -25 39 -29 39 -5 0 -20 11 -35 25 -27 25 -51 34 -39 15 11 -18 -4
-11 -26 13 -12 12 -19 16 -15 9 4 -7 -7 -4 -26 8 -18 11 -43 20 -55 20 -12 0
-45 9 -72 20 -32 12 -61 17 -84 13 -19 -3 -65 2 -103 12 -38 10 -91 19 -119
21 -27 2 -84 6 -125 9 -114 8 -330 6 -371 -4 -20 -4 -43 -5 -51 0 -10 5 -29 1
-53 -11 -21 -11 -54 -21 -72 -22 -19 -1 -39 -8 -44 -14 -6 -7 -17 -10 -25 -7
-8 3 -14 -1 -14 -8 0 -7 -3 -9 -7 -6 -3 4 -12 2 -18 -3 -7 -6 -24 -11 -39 -12
-17 -2 -25 -7 -22 -15 3 -8 -2 -13 -13 -13 -11 0 -21 -4 -23 -8 -1 -4 -41 -18
-88 -29 -94 -24 -219 -68 -234 -83 -6 -6 -18 -10 -28 -10 -10 0 -53 -16 -94
-37 -42 -20 -83 -36 -90 -36 -8 0 -14 -4 -14 -9 0 -4 -17 -8 -38 -8 -45 0 -60
20 -68 88 -9 76 -14 94 -27 89 -7 -2 -17 3 -23 12 -12 15 4 93 26 133 6 10 10
25 10 35 0 21 106 231 154 303 19 30 41 64 48 74 7 11 23 30 36 43 12 13 22
26 22 28 0 9 46 71 55 74 14 4 45 38 40 43 -3 2 13 18 35 34 37 27 55 52 28
39 -7 -3 -3 2 10 11 12 9 22 25 22 35 0 10 4 20 9 23 5 3 7 15 4 26 -3 12 0
20 6 20 7 0 9 -5 5 -12 -4 -7 -3 -8 5 -4 19 12 2 26 -33 26 -19 0 -39 -7 -46
-15z m1167 -791 c-3 -3 -12 -4 -19 -1 -8 3 -5 6 6 6 11 1 17 -2 13 -5z m1093
-1078 c0 -3 -4 -8 -10 -11 -5 -3 -10 -1 -10 4 0 6 5 11 10 11 6 0 10 -2 10 -4z
m146 -853 c-10 -10 -19 5 -10 18 6 11 8 11 12 0 2 -7 1 -15 -2 -18z m-39 -365
c-3 -8 -6 -5 -6 6 -1 11 2 17 5 13 3 -3 4 -12 1 -19z m338 -467 c3 -5 2 -12
-3 -15 -5 -3 -9 1 -9 9 0 17 3 19 12 6z"/>
<path d="M11608 12013 c6 -2 18 -2 25 0 6 3 1 5 -13 5 -14 0 -19 -2 -12 -5z"/>
<path d="M14365 10530 c-3 -5 1 -10 10 -10 9 0 13 5 10 10 -3 6 -8 10 -10 10
-2 0 -7 -4 -10 -10z"/>
<path d="M14914 9836 c1 -8 5 -18 8 -22 4 -3 5 1 4 10 -1 8 -5 18 -8 22 -4 3
-5 -1 -4 -10z"/>
<path d="M14886 9773 c-6 -14 -5 -15 5 -6 7 7 10 15 7 18 -3 3 -9 -2 -12 -12z"/>
<path d="M14840 9729 c0 -5 5 -7 10 -4 6 3 10 8 10 11 0 2 -4 4 -10 4 -5 0
-10 -5 -10 -11z"/>
<path d="M14816 9712 c-3 -5 1 -9 9 -9 8 0 12 4 9 9 -3 4 -7 8 -9 8 -2 0 -6
-4 -9 -8z"/>
<path d="M14765 9680 c-3 -6 1 -7 9 -4 18 7 21 14 7 14 -6 0 -13 -4 -16 -10z"/>
<path d="M14758 9656 c-15 -8 -29 -12 -32 -10 -3 2 -4 1 -1 -3 3 -3 -2 -15
-12 -25 -9 -10 -13 -18 -8 -18 4 0 1 -8 -6 -17 -9 -11 -2 -9 19 6 19 13 31 29
28 37 -3 7 -1 16 4 19 4 3 10 1 12 -5 2 -6 9 -1 16 10 15 24 14 24 -20 6z
m-24 -41 c-4 -8 -11 -15 -16 -15 -6 0 -5 6 2 15 7 8 14 15 16 15 2 0 1 -7 -2
-15z"/>
<path d="M14672 9605 c4 -4 3 -14 -3 -21 -6 -7 -6 -15 -1 -18 6 -3 12 3 15 14
3 11 0 23 -6 27 -7 3 -9 3 -5 -2z"/>
<path d="M8529 9056 c-2 -2 -54 -6 -116 -9 -61 -3 -142 -12 -180 -20 -37 -9
-117 -25 -178 -37 -60 -12 -114 -25 -120 -30 -5 -4 -26 -11 -45 -15 -19 -4
-54 -16 -77 -26 -23 -11 -45 -19 -50 -19 -10 0 -117 -43 -123 -50 -3 -3 -34
-18 -70 -34 -36 -15 -67 -31 -70 -34 -3 -4 -27 -18 -55 -32 -62 -31 -216 -133
-234 -154 -7 -9 -17 -16 -22 -16 -14 0 -166 -129 -228 -194 -31 -32 -75 -76
-98 -99 -24 -22 -43 -43 -43 -47 0 -4 -18 -27 -40 -51 -22 -24 -40 -39 -40
-33 0 7 -17 30 -37 52 -145 153 -266 272 -279 272 -4 0 -26 17 -49 38 -53 47
-143 112 -156 112 -5 0 -9 5 -9 10 0 6 -5 10 -12 10 -7 0 -38 18 -69 40 -32
22 -64 40 -72 40 -9 0 -17 4 -19 8 -8 20 -330 162 -368 162 -8 0 -27 6 -41 14
-14 7 -50 19 -80 26 -30 6 -67 18 -84 25 -42 17 -248 45 -411 54 -219 12 -561
-17 -694 -59 -30 -10 -70 -21 -88 -25 -18 -4 -45 -13 -60 -21 -15 -8 -34 -14
-42 -14 -18 0 -107 -33 -175 -65 -28 -13 -63 -27 -78 -30 -15 -4 -30 -11 -33
-16 -3 -5 -33 -23 -67 -39 -76 -37 -125 -66 -144 -85 -8 -8 -19 -15 -24 -15
-6 0 -37 -20 -69 -45 -32 -25 -62 -45 -67 -45 -5 0 -16 -8 -24 -17 -9 -10 -33
-31 -54 -48 -21 -16 -61 -51 -89 -77 -28 -27 -54 -48 -58 -48 -4 0 -8 -4 -8
-10 0 -12 -48 -60 -60 -60 -6 0 -10 -4 -10 -8 0 -4 -15 -25 -34 -45 -72 -79
-236 -294 -236 -310 0 -3 -16 -29 -36 -58 -40 -61 -111 -198 -139 -274 -11
-27 -27 -65 -37 -84 -10 -20 -18 -42 -18 -51 0 -9 -7 -25 -15 -36 -8 -10 -15
-33 -15 -51 0 -17 -4 -34 -9 -37 -5 -3 -14 -36 -21 -73 -7 -38 -19 -82 -26
-99 -7 -17 -20 -93 -29 -170 -13 -121 -16 -393 -18 -2132 l-2 -1992 525 2 525
3 5 2006 c4 1444 8 2010 16 2020 6 8 16 42 23 76 7 34 18 75 26 90 8 15 15 33
15 39 0 17 43 117 55 130 6 6 19 31 30 55 11 24 28 53 37 63 10 11 20 28 24
38 3 10 9 18 13 18 5 0 21 19 36 43 40 59 168 183 250 241 39 28 72 53 75 56
3 4 31 19 62 33 31 15 59 31 62 36 3 4 38 19 78 31 40 13 78 27 83 31 6 4 57
19 115 33 95 23 124 26 301 26 138 0 209 -4 240 -14 24 -7 69 -19 99 -26 30
-7 64 -19 75 -26 11 -8 28 -14 39 -14 18 0 215 -95 226 -109 3 -3 31 -23 62
-43 100 -66 201 -162 281 -269 31 -41 63 -82 71 -91 9 -10 16 -22 16 -27 0 -6
16 -37 35 -70 42 -71 89 -196 116 -306 19 -75 21 -133 29 -905 5 -454 11 -866
14 -916 3 -50 6 -518 7 -1040 1 -522 4 -1008 6 -1079 l5 -131 545 -2 546 -2
-7 382 c-7 456 -19 2169 -20 3013 -1 548 1 608 18 695 10 52 25 105 32 117 8
12 14 28 14 36 0 7 9 30 20 52 11 22 20 47 20 56 0 9 7 22 15 29 8 7 15 18 15
24 0 16 94 164 128 201 6 7 12 16 12 20 0 8 188 195 196 195 4 0 28 17 53 38
47 38 111 76 191 113 25 12 59 28 75 36 42 21 141 53 195 64 25 4 68 13 95 18
65 13 345 13 410 0 28 -6 73 -14 100 -19 49 -8 160 -45 180 -59 6 -4 37 -18
70 -31 33 -13 62 -27 65 -30 3 -4 25 -18 50 -30 45 -23 122 -78 128 -92 2 -5
8 -8 12 -8 10 0 98 -79 134 -119 11 -13 40 -44 64 -70 23 -25 42 -52 42 -58 0
-7 4 -13 9 -13 5 0 14 -13 21 -30 7 -16 16 -30 21 -30 10 0 122 -232 137 -285
25 -89 50 -192 56 -230 7 -49 23 -743 31 -1330 3 -236 12 -619 20 -850 16
-480 23 -771 30 -1345 4 -223 8 -417 11 -433 l6 -27 524 0 524 0 -5 243 c-3
133 -8 413 -11 622 -4 209 -8 407 -9 440 -6 168 -23 971 -30 1415 -3 190 -10
422 -15 515 -5 94 -12 312 -15 486 -5 316 -21 510 -50 594 -7 22 -23 83 -35
135 -13 52 -26 100 -30 105 -4 6 -15 34 -24 62 -10 29 -22 55 -27 58 -5 4 -9
19 -9 36 0 16 -4 29 -10 29 -5 0 -10 5 -10 12 0 18 -91 198 -125 248 -17 25
-42 66 -55 93 -14 26 -28 47 -32 47 -3 0 -17 17 -29 38 -45 74 -220 278 -301
350 -23 20 -54 48 -69 62 -52 48 -142 119 -197 155 -9 6 -46 31 -84 58 -37 26
-73 47 -80 47 -6 0 -19 6 -27 14 -28 24 -275 143 -326 157 -39 11 -157 53
-170 61 -6 4 -60 16 -120 28 -61 12 -139 28 -175 35 -36 8 -92 16 -125 20 -73
7 -311 15 -316 11z"/>
<path d="M850 1350 l0 -560 45 0 44 0 3 72 3 72 25 -37 c63 -93 237 -132 383
-87 196 61 293 300 221 546 -31 109 -116 196 -222 230 -78 24 -201 16 -267
-18 -49 -26 -102 -74 -123 -113 -9 -15 -11 39 -12 218 l0 237 -50 0 -50 0 0
-560z m485 141 c85 -39 139 -123 153 -238 20 -168 -44 -308 -165 -358 -43 -18
-131 -19 -185 -3 -48 14 -123 78 -147 127 -28 54 -45 153 -38 220 18 173 117
271 271 271 47 0 85 -7 111 -19z"/>
<path d="M5610 1673 c0 -237 0 -238 -19 -207 -56 92 -163 140 -295 132 -224
-14 -351 -197 -325 -464 14 -147 79 -248 196 -306 58 -28 78 -33 165 -36 75
-3 109 0 141 12 44 17 99 63 129 106 17 25 17 24 17 -47 l1 -73 45 0 45 0 0
560 0 560 -50 0 -50 0 0 -237z m-155 -187 c92 -42 142 -125 152 -253 15 -208
-95 -353 -270 -353 -108 0 -185 49 -234 148 -26 52 -28 67 -28 167 0 93 4 118
23 160 29 62 75 112 127 136 60 28 166 25 230 -5z"/>
<path d="M8310 1350 l0 -560 50 0 50 0 0 560 0 560 -50 0 -50 0 0 -560z"/>
<path d="M8600 1350 l0 -560 50 0 50 0 0 560 0 560 -50 0 -50 0 0 -560z"/>
<path d="M8880 1350 l0 -560 50 0 50 0 0 73 0 72 20 -32 c57 -94 243 -138 392
-93 102 30 194 133 224 251 23 88 15 243 -15 321 -30 77 -105 159 -173 188
-144 63 -339 21 -414 -89 l-24 -36 0 233 0 232 -55 0 -55 0 0 -560z m497 139
c99 -48 148 -147 148 -299 0 -86 -3 -102 -31 -161 -47 -98 -124 -149 -227
-149 -112 0 -197 51 -244 148 -26 52 -28 66 -28 172 0 105 3 119 27 165 52 99
128 144 242 145 51 0 82 -6 113 -21z"/>
<path d="M10600 1830 l0 -80 50 0 50 0 0 80 0 80 -50 0 -50 0 0 -80z"/>
<path d="M1943 1582 c-137 -49 -219 -174 -230 -349 -17 -255 109 -423 329
-440 127 -10 225 23 292 98 40 43 82 125 88 169 3 24 0 25 -46 25 -49 0 -49 0
-63 -42 -21 -61 -84 -128 -140 -147 -171 -58 -331 43 -358 227 l-7 47 312 0
313 0 -6 78 c-10 147 -78 261 -192 320 -68 35 -213 42 -292 14z m246 -97 c74
-37 120 -101 137 -190 l6 -35 -261 0 -261 0 6 28 c21 89 78 167 147 201 61 31
162 29 226 -4z"/>
<path d="M2483 1568 c8 -18 80 -199 162 -401 166 -414 158 -372 96 -497 -34
-69 -74 -94 -143 -86 l-48 5 0 -44 0 -45 48 -1 c109 -2 144 7 180 50 27 32 82
162 175 411 53 140 128 339 166 441 39 103 71 190 71 193 0 4 -23 6 -51 4
l-51 -3 -18 -50 c-107 -300 -214 -593 -220 -605 -7 -12 -11 -10 -18 10 -101
261 -201 520 -222 575 l-27 70 -57 3 -57 3 14 -33z"/>
<path d="M3501 1584 c-181 -66 -285 -256 -252 -458 28 -169 124 -282 273 -322
197 -52 396 46 464 230 29 78 27 261 -4 338 -31 77 -105 156 -179 193 -50 24
-72 29 -158 32 -74 2 -111 -1 -144 -13z m239 -95 c78 -35 126 -94 154 -189 46
-153 -16 -326 -139 -389 -41 -22 -63 -26 -131 -26 -72 0 -86 3 -129 30 -169
104 -197 370 -56 518 26 26 64 54 86 62 60 21 161 19 215 -6z"/>
<path d="M4150 1195 l0 -405 55 0 55 0 0 259 c0 279 5 311 55 377 38 50 116
84 192 84 35 0 78 -6 96 -14 42 -17 83 -66 97 -114 6 -21 10 -155 10 -315 l0
-278 53 3 52 3 3 245 c4 351 -13 445 -92 505 -52 40 -116 55 -230 55 -119 0
-153 -13 -203 -79 l-33 -43 0 61 0 61 -55 0 -55 0 0 -405z"/>
<path d="M6275 1528 c13 -40 48 -151 79 -246 106 -327 148 -457 153 -474 4
-14 16 -18 59 -18 29 0 55 4 58 9 3 5 21 62 40 127 94 327 149 510 156 517 4
4 23 -47 43 -115 80 -275 138 -475 148 -506 11 -33 11 -33 67 -30 l55 3 23 70
c65 200 223 693 229 713 6 21 4 22 -49 22 -54 0 -55 -1 -64 -32 -14 -49 -140
-471 -169 -566 -14 -45 -27 -81 -28 -80 -2 2 -40 134 -85 293 -45 160 -89 311
-97 338 l-15 47 -57 0 -57 0 -93 -327 c-52 -181 -97 -334 -101 -341 -4 -7 -16
19 -27 60 -12 40 -47 159 -78 263 -31 105 -67 224 -79 265 l-22 75 -56 3 -56
3 23 -73z"/>
<path d="M7710 1591 c-204 -63 -307 -306 -234 -553 27 -88 92 -171 164 -208
144 -73 364 -39 449 69 37 47 81 138 81 169 0 20 -5 22 -46 22 -44 0 -45 -1
-66 -47 -48 -109 -123 -163 -227 -163 -84 0 -130 18 -188 76 -52 52 -83 120
-83 186 l0 28 310 0 310 0 0 41 c0 67 -29 173 -63 230 -38 64 -114 124 -181
144 -52 16 -183 19 -226 6z m216 -100 c78 -35 144 -131 144 -208 l0 -23 -255
0 c-287 0 -268 -7 -235 82 23 62 79 124 135 149 54 25 156 25 211 0z"/>
<path d="M10000 1591 c-178 -58 -286 -260 -251 -472 21 -132 91 -243 181 -289
143 -72 364 -39 448 68 39 49 69 109 77 155 l7 37 -45 0 -46 0 -31 -64 c-48
-102 -117 -146 -225 -146 -69 0 -120 18 -168 60 -51 45 -89 117 -95 182 l-5
48 312 0 311 0 0 43 c0 56 -25 158 -50 208 -32 62 -83 112 -146 144 -50 26
-71 30 -154 32 -52 1 -106 -1 -120 -6z m215 -100 c78 -35 145 -129 145 -202
l0 -29 -255 0 c-288 0 -268 -7 -235 83 24 64 77 122 134 148 55 25 157 25 211
0z"/>
<path d="M10600 1195 l0 -405 50 0 50 0 0 405 0 405 -50 0 -50 0 0 -405z"/>
<path d="M10890 1195 l0 -405 49 0 50 0 3 273 3 272 31 55 c41 73 103 112 184
118 85 6 126 -4 169 -44 56 -50 61 -81 61 -398 l0 -276 50 0 c33 0 50 4 50 13
4 168 -3 601 -10 628 -15 57 -63 114 -117 140 -41 20 -66 24 -168 27 -139 4
-168 -6 -222 -77 l-33 -43 0 61 0 61 -50 0 -50 0 0 -405z"/>
<path d="M11931 1584 c-99 -35 -174 -107 -213 -203 -19 -48 -23 -75 -23 -186
0 -112 4 -138 23 -186 49 -123 151 -196 287 -206 124 -10 213 26 276 111 l31
41 -4 -105 c-6 -143 -40 -208 -128 -247 -52 -23 -204 -23 -250 1 -51 26 -88
64 -101 103 -10 31 -13 33 -60 33 -46 0 -49 -2 -49 -25 0 -69 81 -159 176
-194 77 -29 227 -31 311 -5 86 27 154 97 182 188 20 64 21 90 21 482 l0 414
-50 0 -50 0 0 -60 0 -59 -44 44 c-31 30 -60 48 -97 59 -66 20 -181 20 -238 0z
m217 -90 c109 -45 173 -183 159 -342 -18 -190 -165 -300 -338 -252 -53 15
-122 80 -150 142 -33 74 -34 240 -3 309 29 62 81 118 129 140 50 23 152 25
203 3z"/>
</g>
</svg>
