<?xml version="1.0" standalone="yes"?>
<svg xmlns="http://www.w3.org/2000/svg" width="450" height="250">
<path style="fill:#030405; stroke:none;" d="M0 0L0 250L450 250L450 0L0 0z"/>
<path style="fill:#54708d; stroke:none;" d="M200 32L200 37L201 37L208 34L208 32L200 32z"/>
<path style="fill:#5a97cb; stroke:none;" d="M208 32L210 35L210 36L205 36C215.564 55.3222 232.426 45.8071 246 38L246 36L240 36L240 32L208 32z"/>
<path style="fill:#54708d; stroke:none;" d="M240 32L240 35L248 35C247.146 31.0129 243.511 32 240 32z"/>
<path style="fill:#1a68b0; stroke:none;" d="M250 32L251 33L250 32M202 34L200 37C202.488 44.9156 208.735 46.3804 216 49L216 52C202.912 57.625 209.239 73.0442 206.755 84.9105C205.675 90.0695 201.81 93.5411 202 99L199 97L195 103C195.194 107.339 194.253 110.1 191 113L192 116L187 118L188 122L187 124L186 125L184 124L179 136L177 140L176 140L175 138L175 141C171.745 142.767 171.348 144.42 172 148L171 150L166 152L167 154L164 155L161 159L163 163C158.823 165.545 156.541 170.21 156 175L154 174L151 176L147 183L149 186C140.904 188.89 137.006 200.202 137 208L138 208L138 203L139 203C139.558 206.587 140.366 208.332 144 209L145 217L146 217L145 210L146 210L147 212C148.93 207.294 153.377 189.375 159.965 190.176C166.714 190.997 176.793 214.258 168 217C164.243 209.198 155.982 207.241 152 216L155 214L162 216L160 223C165.085 221.052 171.339 219.469 176 223L177 223L178 223L188 221L188 216L212 217L212 216L206 216C204.195 212.246 201.109 209.252 200.344 205C195.935 180.478 238.962 190.293 225.296 209.957C223.43 212.642 220.699 214.28 218 216L218 217L232 216L231 190L238 190L238 210L251 210L250 217L255 216L254 190C263.877 190.754 261 202.609 261 210L274 210L280 221L291 223C292.995 219.392 295.089 219.192 299 220L301 215L282 216C279.735 211.615 276.138 208.27 276.084 203C275.941 189.109 296.038 184.16 301.921 197.015C304.102 201.781 302.709 206.381 301 211C303.684 209.523 308.011 208.864 310.255 206.978C315.237 202.788 308.547 196.236 308 192L305 191L307 189L302 186L303 182L291 169C293.955 163.37 282.966 151.173 278 148C278.259 143.37 276.566 139.509 272 138L258 112L255 111L252 106L253 102L250 101C250.08 96.66 246.439 89.9357 242 89L236 49C242.978 46.3707 248.05 42.7491 251 36L244 35L244 36L246 38C240.567 40.2968 236.509 45.0636 231 47.1566C221.161 50.8949 210.952 43.2075 205 36L209 36L202 34z"/>
<path style="fill:#5a97cb; stroke:none;" d="M245.667 34.3333L246.333 34.6667L245.667 34.3333z"/>
<path style="fill:#030405; stroke:none;" d="M202 35L203 36L202 35z"/>
<path style="fill:#54708d; stroke:none;" d="M209 35L210 36L209 35z"/>
<path style="fill:#1a68b0; stroke:none;" d="M240.667 35.3333L241.333 35.6667L240.667 35.3333z"/>
<path style="fill:#030405; stroke:none;" d="M201 36L202 37L201 36z"/>
<path style="fill:#1a68b0; stroke:none;" d="M250 38L251 39L250 38z"/>
<path style="fill:#54708d; stroke:none;" d="M241 40L242 41L241 40z"/>
<path style="fill:#1a68b0; stroke:none;" d="M200 42L201 43L200 42z"/>
<path style="fill:#030405; stroke:none;" d="M206 44L207 45L206 44z"/>
<path style="fill:#54708d; stroke:none;" d="M234 45L235 46L234 45z"/>
<path style="fill:#1a68b0; stroke:none;" d="M207 46L208 47L207 46z"/>
<path style="fill:#54708d; stroke:none;" d="M217 46L218 47L217 46z"/>
<path style="fill:#1a68b0; stroke:none;" d="M247 46L245 47L245 48L247 46M205 47L206 48L205 47z"/>
<path style="fill:#54708d; stroke:none;" d="M218 47L219 48L218 47M231 47L232 48L231 47z"/>
<path style="fill:#1a68b0; stroke:none;" d="M241 49L240 51L241 49z"/>
<path style="fill:#54708d; stroke:none;" d="M200 88L200 96L192 96L192 112L193 112L195 103L199 97L202 98L205 88L200 88M244 88L247 95L248 95L248 88L244 88z"/>
<path style="fill:#030405; stroke:none;" d="M243 91L244 92L243 91M205 92L206 93L205 92M245 94L246 95L245 94z"/>
<path style="fill:#54708d; stroke:none;" d="M247 96L248 97L247 96M249 96L250 101L253 102L256 108L256 96L249 96z"/>
<path style="fill:#030405; stroke:none;" d="M247 97L248 98L247 97M201 98L202 99L201 98z"/>
<path style="fill:#1a68b0; stroke:none;" d="M194 99L196 101L194 99z"/>
<path style="fill:#030405; stroke:none;" d="M200 99L201 100L200 99M248 99L249 100L248 99M196 101L197 102L196 101M199 101L200 102L199 101M249 101L251 103L249 101M252 105L253 106L252 105M253 107L254 108L253 107M194 109L195 110L194 109M193 111L194 112L193 111z"/>
<path style="fill:#54708d; stroke:none;" d="M184 112L184 124L188 122L187 118L192 112L184 112M258 112C259.836 118.809 266.546 129.57 272 134L272 120L264 120L264 112L258 112z"/>
<path style="fill:#030405; stroke:none;" d="M192 113L193 114L192 113M257 113L258 114L257 113M191 115L192 116L191 115M190 116L191 117L190 116M186 123L187 124L186 123M263 123L264 124L263 123M185 124L186 125L185 124z"/>
<path style="fill:#54708d; stroke:none;" d="M176 128L176 139L177 139L182 128L176 128z"/>
<path style="fill:#030405; stroke:none;" d="M267 129L268 130L267 129M181 131L182 132L181 131M268 131L269 132L268 131M180 132L181 133L180 132M179 134L180 135L179 134M270 134L271 135L270 134M178 136L179 137L178 136z"/>
<path style="fill:#54708d; stroke:none;" d="M272 136L272 137L279 148L280 148L280 136L272 136z"/>
<path style="fill:#030405; stroke:none;" d="M272 137L273 138L272 137M176 139L177 140L176 139M273 139L274 140L273 139M173 145L174 145L175 143L173 145M275 142L276 143L275 142z"/>
<path style="fill:#54708d; stroke:none;" d="M168 144L168 151L169 151L172 144L168 144z"/>
<path style="fill:#030405; stroke:none;" d="M171 147L172 148L171 147M278 147L279 148L278 147M170 149L171 150L170 149M169 151L168 153L169 151z"/>
<path style="fill:#54708d; stroke:none;" d="M160 152L162 154L162 155L162 156L160 164L161 164L161 159L167 154L160 152M284 152L287 160L288 160L288 152L284 152z"/>
<path style="fill:#030405; stroke:none;" d="M165 153L166 154L165 153M282 153L283 154L282 153z"/>
<path style="fill:#1a68b0; stroke:none;" d="M160 154L160 156L162 156L162 154L160 154z"/>
<path style="fill:#030405; stroke:none;" d="M167 154L168 155L167 154M283 155L285 157L283 155M166 156L165 158L166 156M164 159L165 160L164 159M286 160L288 162L286 160z"/>
<path style="fill:#54708d; stroke:none;" d="M288 160L296 172L296 160L288 160z"/>
<path style="fill:#030405; stroke:none;" d="M162 162L163 163L162 162M288 163L289 164L288 163M290 166L291 167L290 166z"/>
<path style="fill:#54708d; stroke:none;" d="M152 168L152 177L153 177L158 168L152 168z"/>
<path style="fill:#030405; stroke:none;" d="M291 168L292 169L291 168M158 169L159 170L158 169M292 169L293 170L292 169M293 171L294 172L293 171M156 172L157 173L156 172M155 174L156 175L155 174z"/>
<path style="fill:#54708d; stroke:none;" d="M144 176L144 190L145 190L148 186L147 183L151 176L144 176M298 176L303 182L303 186L304 186L304 176L298 176z"/>
<path style="fill:#030405; stroke:none;" d="M297 177L298 178L297 177M298 179L299 180L298 179z"/>
<path style="fill:#1a68b0; stroke:none;" d="M144 180L144 184L146 184L146 180L144 180z"/>
<path style="fill:#030405; stroke:none;" d="M151 180L152 181L151 180M150 182L151 183L150 182M300 182L301 183L300 182M148 183L149 184L148 183M149 184L150 185L149 184M148 185L149 186L148 185M302 185L303 186L302 185M303 187L304 188L303 187z"/>
<path style="fill:#54708d; stroke:none;" d="M158 189L158 190L161 190L158 189z"/>
<path style="fill:#5a97cb; stroke:none;" d="M288 189L288 190L293 190L288 189z"/>
<path style="fill:#54708d; stroke:none;" d="M293 189L294 190L293 189z"/>
<path style="fill:#5a97cb; stroke:none;" d="M156 190L153 198L154 198L159 191L156 190z"/>
<path style="fill:#ddeef8; stroke:none;" d="M147 215L159.015 209.078L172 215C171.528 210.391 165.194 189.489 159.05 190.971C152.761 192.488 148.319 209.446 147 215z"/>
<path style="fill:#5a97cb; stroke:none;" d="M161.667 190.333L162.333 190.667L161.667 190.333M176 190L176 191C180.841 191 187.554 189.827 191.956 192.179C199.299 196.102 195.672 203.621 189 205C196.359 207.526 199.889 197.413 195.196 192.434C191.114 188.103 181.419 190 176 190z"/>
<path style="fill:#54708d; stroke:none;" d="M207 190L208 191L207 190z"/>
<path style="fill:#5a97cb; stroke:none;" d="M208.667 190.333L209.333 190.667L208.667 190.333z"/>
<path style="fill:#ddeef8; stroke:none;" d="M210.001 190.559C193.552 194.816 201.417 218.54 217.996 214.467C234.13 210.503 225.706 186.494 210.001 190.559z"/>
<path style="fill:#5a97cb; stroke:none;" d="M217 190L217 191L220 191L217 190M231 190L232 215L233 215L232 191L237 191L237 208C239.843 201.224 239.767 190.288 231 190z"/>
<path style="fill:#54708d; stroke:none;" d="M237 190L238 191L237 190z"/>
<path style="fill:#5a97cb; stroke:none;" d="M254 190L255 215L256 215C254.487 208.643 252.909 196.4 257 191L254 190z"/>
<path style="fill:#ddeef8; stroke:none;" d="M274 212L260 211L260 202C260 199.933 261.186 190.442 257.17 191.176C253.663 191.817 255 200.551 255 203C255 212.648 255.88 215.18 266 214.995C269.519 214.931 271.55 214.502 274 212z"/>
<path style="fill:#5a97cb; stroke:none;" d="M258.667 190.333L259.333 190.667L258.667 190.333M279 194L286 191L279 194z"/>
<path style="fill:#ddeef8; stroke:none;" d="M286.001 190.558C269.67 194.837 277.427 219.2 293.999 214.427C309.112 210.075 301.621 186.465 286.001 190.558z"/>
<path style="fill:#5a97cb; stroke:none;" d="M294.667 190.333L295.333 190.667L294.667 190.333z"/>
<path style="fill:#54708d; stroke:none;" d="M155 191L156 192L155 191z"/>
<path style="fill:#5a97cb; stroke:none;" d="M163 191L163 194L164 194L163 191z"/>
<path style="fill:#ddeef8; stroke:none;" d="M176 191C176 197.268 174.478 205.769 176.318 211.771C178.71 219.571 181.99 208.864 182 206C188.03 205.95 204.431 200.814 193.772 192.742C189.422 189.449 181.153 191 176 191z"/>
<path style="fill:#54708d; stroke:none;" d="M205 191L206 192L205 191z"/>
<path style="fill:#5a97cb; stroke:none;" d="M206 191L207 192L206 191M220.667 191.333L221.333 191.667L220.667 191.333z"/>
<path style="fill:#ddeef8; stroke:none;" d="M232 191C232 196.321 229.638 209.117 233.028 213.397C236.317 217.55 248.442 215.694 250 211L237 211L237 191L232 191z"/>
<path style="fill:#5a97cb; stroke:none;" d="M260 191L260 211L274 212L261 210L260 191M296.667 191.333L297.333 191.667L296.667 191.333z"/>
<path style="fill:#54708d; stroke:none;" d="M136 192L136 200L143 192L136 192z"/>
<path style="fill:#030405; stroke:none;" d="M144 192L143 194L144 192z"/>
<path style="fill:#54708d; stroke:none;" d="M175 192L175 213L176 213L175 192M195 192L196 193L195 192z"/>
<path style="fill:#5a97cb; stroke:none;" d="M204.667 192.333L205.333 192.667L204.667 192.333M222 192L223 193L222 192M298 192L300 194L298 192z"/>
<path style="fill:#54708d; stroke:none;" d="M299 192L300 193L299 192M308 192L311 199L312 199L312 192L308 192z"/>
<path style="fill:#5a97cb; stroke:none;" d="M203 193L204 194L203 193M223 193L224 194L223 193z"/>
<path style="fill:#030405; stroke:none;" d="M307 193L308 194L307 193z"/>
<path style="fill:#5a97cb; stroke:none;" d="M164 194L165 198L166 198L164 194M182 195L182 196L191 197C188.106 194.289 185.792 193.969 182 195M202.333 194.667L202.667 195.333L202.333 194.667M220 208C218.382 208.685 216.762 209.528 214.976 209.682C197.617 211.18 215.153 183.859 219.682 201.011C220.183 202.91 219.993 205.057 220 207C223.62 198.371 212.621 188.409 207.179 198.109C202.304 206.798 213.145 215 220 208M224 194L225 195L224 194z"/>
<path style="fill:#54708d; stroke:none;" d="M278 194L277 196L278 194z"/>
<path style="fill:#5a97cb; stroke:none;" d="M283 198C289.318 195.105 294.193 195.484 296 203C298.961 194.346 287.76 192.607 283 198M300 194L301 195L300 194z"/>
<path style="fill:#030405; stroke:none;" d="M142 195L143 196L142 195z"/>
<path style="fill:#54708d; stroke:none;" d="M165 195L166 196L165 195M182 196L182 197L188 196L182 196M211 195L212 196L211 195z"/>
<path style="fill:#1a68b0; stroke:none;" d="M212.043 195.786C203.875 198.585 207.115 212.781 215.941 209.392C222.983 206.688 220.07 193.036 212.043 195.786z"/>
<path style="fill:#5a97cb; stroke:none;" d="M225 195L226 200L227 200L225 195M278 195L279 196L278 195z"/>
<path style="fill:#1a68b0; stroke:none;" d="M288.019 195.851C280.169 198.073 282.327 211.576 290.956 209.663C299.006 207.878 296.208 193.533 288.019 195.851z"/>
<path style="fill:#54708d; stroke:none;" d="M301 195L302 196L301 195z"/>
<path style="fill:#030405; stroke:none;" d="M308 195L309 196L308 195z"/>
<path style="fill:#1a68b0; stroke:none;" d="M183 196L183 201C187.052 200.776 189.265 200.235 190 196L183 196z"/>
<path style="fill:#5a97cb; stroke:none;" d="M201.333 196.667L201.667 197.333L201.333 196.667z"/>
<path style="fill:#54708d; stroke:none;" d="M209 196L210 197L209 196M226 196L227 197L226 196z"/>
<path style="fill:#5a97cb; stroke:none;" d="M277.333 196.667L277.667 197.333L277.333 196.667z"/>
<path style="fill:#54708d; stroke:none;" d="M285 196L286 197L285 196M293 196L294 197L293 196z"/>
<path style="fill:#5a97cb; stroke:none;" d="M301 196L302 197L301 196M182.333 197.667L182.667 198.333L182.333 197.667z"/>
<path style="fill:#54708d; stroke:none;" d="M190.333 197.667L190.667 198.333L190.333 197.667M208 197L209 198L208 197M284 197L285 198L284 197z"/>
<path style="fill:#5a97cb; stroke:none;" d="M302 197L302 207L303 207L302 197z"/>
<path style="fill:#030405; stroke:none;" d="M140 198L141 199L140 198z"/>
<path style="fill:#54708d; stroke:none;" d="M152 198L153 199L152 198z"/>
<path style="fill:#5a97cb; stroke:none;" d="M159 198L157 203L158 203L161 200L159 198M166.333 198.667L166.667 199.333L166.333 198.667z"/>
<path style="fill:#54708d; stroke:none;" d="M200 198L201 199L200 198M219 198L220 199L219 198z"/>
<path style="fill:#5a97cb; stroke:none;" d="M276 198L276 208L277 208L276 198z"/>
<path style="fill:#54708d; stroke:none;" d="M283 198L284 199L283 198z"/>
<path style="fill:#5a97cb; stroke:none;" d="M152 199L151 203L152 203L152 199z"/>
<path style="fill:#54708d; stroke:none;" d="M159 199L161 201L159 199M182 199L183 200L182 199z"/>
<path style="fill:#5a97cb; stroke:none;" d="M190 199L182 200C183.614 202.801 191.381 202.714 190 199M200 199L200 207L201 207L200 199z"/>
<path style="fill:#54708d; stroke:none;" d="M207 199L208 200L207 199z"/>
<path style="fill:#5a97cb; stroke:none;" d="M282 199L282 206L283 206L282 199z"/>
<path style="fill:#030405; stroke:none;" d="M310 199L311 200L310 199M139 200L140 201L139 200z"/>
<path style="fill:#54708d; stroke:none;" d="M151 200L152 201L151 200z"/>
<path style="fill:#1a68b0; stroke:none;" d="M159 200L158 204L162 204L159 200z"/>
<path style="fill:#54708d; stroke:none;" d="M167 200L168 201L167 200M188 200L189 201L188 200M197 200L198 201L197 200M158 201L159 202L158 201z"/>
<path style="fill:#5a97cb; stroke:none;" d="M161.333 201.667L161.667 202.333L161.333 201.667M167 201L168 202L167 201z"/>
<path style="fill:#54708d; stroke:none;" d="M168 202L169 203L168 202M196 202L197 203L196 202M227 202L227 206L228 206L227 202M303.333 202.667L303.667 203.333L303.333 202.667z"/>
<path style="fill:#5a97cb; stroke:none;" d="M150 203L150 206L151 206L150 203z"/>
<path style="fill:#54708d; stroke:none;" d="M157 203L158 204L157 203z"/>
<path style="fill:#5a97cb; stroke:none;" d="M162 203L157 204L157 205L162 203M168 203L169 207L170 207L168 203z"/>
<path style="fill:#54708d; stroke:none;" d="M230.333 203.667L230.667 204.333L230.333 203.667M296 203L297 204L296 203M169 204L170 205L169 204z"/>
<path style="fill:#5a97cb; stroke:none;" d="M296 204C294.194 209.144 291.2 210.262 286 210L286 211C290.789 211.494 297.661 210.32 296 204z"/>
<path style="fill:#54708d; stroke:none;" d="M193 205L194 206L193 205z"/>
<path style="fill:#5a97cb; stroke:none;" d="M149.333 206.667L149.667 207.333L149.333 206.667M182 206L182 207L188 207L182 206z"/>
<path style="fill:#54708d; stroke:none;" d="M188 206L189 207L188 206z"/>
<path style="fill:#5a97cb; stroke:none;" d="M226.333 206.667L226.667 207.333L226.333 206.667z"/>
<path style="fill:#54708d; stroke:none;" d="M295 206L296 207L295 206z"/>
<path style="fill:#5a97cb; stroke:none;" d="M170.333 207.667L170.667 208.333L170.333 207.667z"/>
<path style="fill:#54708d; stroke:none;" d="M182 207L182 214L183 214L182 207M219 207L220 208L219 207z"/>
<path style="fill:#5a97cb; stroke:none;" d="M283 207L284 208L283 207z"/>
<path style="fill:#54708d; stroke:none;" d="M302 207L303 208L302 207M148 208L149 209L148 208z"/>
<path style="fill:#5a97cb; stroke:none;" d="M201.333 208.667L201.667 209.333L201.333 208.667z"/>
<path style="fill:#54708d; stroke:none;" d="M218 208L219 209L218 208M226 208L227 209L226 208M237 208L238 209L237 208z"/>
<path style="fill:#5a97cb; stroke:none;" d="M277.333 208.667L277.667 209.333L277.333 208.667M284 208L285 209L284 208z"/>
<path style="fill:#54708d; stroke:none;" d="M294 208L295 209L294 208z"/>
<path style="fill:#5a97cb; stroke:none;" d="M301 208L302 209L301 208z"/>
<path style="fill:#030405; stroke:none;" d="M146 209L147 210L146 209z"/>
<path style="fill:#5a97cb; stroke:none;" d="M148 209L149 210L148 209M154 209L154 210L167 213C164 208.11 159.204 209 154 209z"/>
<path style="fill:#54708d; stroke:none;" d="M171 209L172 210L171 209M217 209L218 210L217 209z"/>
<path style="fill:#5a97cb; stroke:none;" d="M225 209L224 212L225 212L225 209M237 209L250 211L249 215L251 210L237 209M285 209L286 210L285 209z"/>
<path style="fill:#54708d; stroke:none;" d="M293 209L294 210L293 209M301 209L302 210L301 209z"/>
<path style="fill:#030405; stroke:none;" d="M145 210L145 213L146 213L145 210z"/>
<path style="fill:#54708d; stroke:none;" d="M147 210L146 215L147 215L147 210M154 210L155 211L154 210M164 210L165 211L164 210z"/>
<path style="fill:#5a97cb; stroke:none;" d="M171 210L172 211L171 210M202 210L203 211L202 210z"/>
<path style="fill:#54708d; stroke:none;" d="M225 210L226 211L225 210z"/>
<path style="fill:#5a97cb; stroke:none;" d="M278 210L279 211L278 210z"/>
<path style="fill:#54708d; stroke:none;" d="M289 210L290 211L289 210z"/>
<path style="fill:#5a97cb; stroke:none;" d="M300 210L297 214L300 210z"/>
<path style="fill:#1a68b0; stroke:none;" d="M310 210L311 213L310 210z"/>
<path style="fill:#5a97cb; stroke:none;" d="M153 211L154 212L153 211z"/>
<path style="fill:#54708d; stroke:none;" d="M172 211L173 212L172 211z"/>
<path style="fill:#5a97cb; stroke:none;" d="M203 211L205 213L203 211M279 211L285 215L285 214L279 211z"/>
<path style="fill:#54708d; stroke:none;" d="M300 211L299 213L300 211z"/>
<path style="fill:#1a68b0; stroke:none;" d="M302 211L303 212L302 211z"/>
<path style="fill:#5a97cb; stroke:none;" d="M147 212L148 213L147 212z"/>
<path style="fill:#54708d; stroke:none;" d="M153 212L154 213L153 212z"/>
<path style="fill:#5a97cb; stroke:none;" d="M172 212L172 215L173 215L172 212z"/>
<path style="fill:#54708d; stroke:none;" d="M203 212L204 213L203 212z"/>
<path style="fill:#5a97cb; stroke:none;" d="M223 212L224 213L223 212z"/>
<path style="fill:#54708d; stroke:none;" d="M279 212L280 213L279 212z"/>
<path style="fill:#1a68b0; stroke:none;" d="M300 212L301 213L300 212z"/>
<path style="fill:#5a97cb; stroke:none;" d="M152 213L151 215L152 213z"/>
<path style="fill:#54708d; stroke:none;" d="M166 213L167 214L166 213M173.333 213.667L173.667 214.333L173.333 213.667z"/>
<path style="fill:#5a97cb; stroke:none;" d="M205 213L205 214L209 215L209 214L205 213M221 213L222 214L221 213z"/>
<path style="fill:#54708d; stroke:none;" d="M222 213L223 214L222 213z"/>
<path style="fill:#5a97cb; stroke:none;" d="M273 213L272 215L274 215L273 213z"/>
<path style="fill:#54708d; stroke:none;" d="M280 213L281 214L280 213M298 213L299 214L298 213z"/>
<path style="fill:#1a68b0; stroke:none;" d="M308 213L309 214L308 213M142 214L144 216L144 214L142 214z"/>
<path style="fill:#54708d; stroke:none;" d="M152 214L153 215L152 214z"/>
<path style="fill:#5a97cb; stroke:none;" d="M167 214L168 215L167 214M176.667 214.333L177.333 214.667L176.667 214.333M181 214L182 215L181 214z"/>
<path style="fill:#54708d; stroke:none;" d="M206 214L207 215L206 214z"/>
<path style="fill:#5a97cb; stroke:none;" d="M218.667 214.333L219.333 214.667L218.667 214.333z"/>
<path style="fill:#54708d; stroke:none;" d="M220 214L221 215L220 214M231 214L232 215L231 214M254 214L255 215L254 214M282 214L283 215L282 214z"/>
<path style="fill:#5a97cb; stroke:none;" d="M294.667 214.333L295.333 214.667L294.667 214.333z"/>
<path style="fill:#54708d; stroke:none;" d="M296 214L297 215L296 214z"/>
<path style="fill:#1a68b0; stroke:none;" d="M302 214L302 216L304 216L304 214L302 214M305.333 214.667L305.667 215.333L305.333 214.667z"/>
<path style="fill:#54708d; stroke:none;" d="M147 215L147 216L152 216L147 215M167 215L167 216L173 216L167 215M177 215L177 216L182 216L177 215z"/>
<path style="fill:#030405; stroke:none;" d="M183 215L184 216L183 215M206 215L207 216L206 215z"/>
<path style="fill:#54708d; stroke:none;" d="M209.667 215.333L210.333 215.667L209.667 215.333z"/>
<path style="fill:#5a97cb; stroke:none;" d="M211 215L211 216L217 216L211 215z"/>
<path style="fill:#54708d; stroke:none;" d="M217.667 215.333L218.333 215.667L217.667 215.333M232 215L232 216L251 216L232 215M255 215L255 216L274 216L255 215z"/>
<path style="fill:#030405; stroke:none;" d="M276 215L277 216L276 215M282 215L283 216L282 215z"/>
<path style="fill:#54708d; stroke:none;" d="M285.667 215.333L286.333 215.667L285.667 215.333z"/>
<path style="fill:#5a97cb; stroke:none;" d="M287 215L287 216L292 216L287 215z"/>
<path style="fill:#54708d; stroke:none;" d="M292 215L292 216L295 216L292 215z"/>
<path style="fill:#030405; stroke:none;" d="M297 215L298 216L297 215M168.667 216.333L169.333 216.667L168.667 216.333M171 216L172 217L171 216z"/>
<path style="fill:#1a68b0; stroke:none;" d="M260 216L260 221C264.134 220.678 266.698 220.222 268 216L260 216M308 216L305 220L306 220L309 217L308 216M148 217L151 223L152 223L150 220L152 217L148 217z"/>
<path style="fill:#030405; stroke:none;" d="M176.667 217.333L177.333 217.667L176.667 217.333M180.667 217.333L181.333 217.667L180.667 217.333z"/>
<path style="fill:#1a68b0; stroke:none;" d="M303 219L301 220L302 222L299 221L299 222C301.619 222.276 303.734 222.047 303 219M149 222L150 223L149 222M296 224L297 225L296 224M298 224L299 225L298 224z"/>
</svg>
