<?xml version="1.0" standalone="no"?>
<!DOCTYPE svg PUBLIC "-//W3C//DTD SVG 20010904//EN"
 "http://www.w3.org/TR/2001/REC-SVG-20010904/DTD/svg10.dtd">
<svg version="1.0" xmlns="http://www.w3.org/2000/svg"
 width="450.000000pt" height="250.000000pt" viewBox="0 0 450.000000 250.000000"
 preserveAspectRatio="xMidYMid meet">

<g transform="translate(0.000000,250.000000) scale(0.100000,-0.100000)"
fill="#000000" stroke="none">
<path d="M2974 2222 c-138 -61 -252 -151 -324 -256 -28 -41 -35 -62 -40 -120
-3 -42 -13 -82 -23 -97 -17 -26 -17 -26 23 -66 36 -37 40 -46 40 -90 0 -37 -7
-60 -24 -86 l-25 -36 26 -38 c57 -85 128 -133 229 -154 52 -11 68 -10 100 2
67 25 83 108 28 143 -40 27 -66 90 -63 157 1 32 0 61 -3 65 -11 10 -88 12 -81
1 4 -6 1 -7 -8 -1 -21 13 -39 14 -39 1 0 -5 -3 -7 -7 -4 -3 4 -12 2 -20 -5 -7
-6 -16 -9 -19 -6 -2 3 24 32 60 64 80 74 157 104 264 104 74 0 130 -16 165
-48 22 -20 60 -78 70 -107 7 -19 6 -19 -7 -2 -7 9 -18 17 -24 17 -6 0 -12 3
-15 8 -2 4 -2 0 1 -8 21 -68 25 -102 13 -139 -21 -72 -77 -122 -152 -136 -34
-6 -36 -9 -57 -81 -16 -52 -33 -86 -59 -115 l-37 -41 40 8 c90 16 232 114 301
207 58 80 76 144 71 262 -3 89 -5 95 -42 149 -25 37 -66 76 -115 111 -146 105
-162 119 -182 156 -24 48 -24 95 0 159 22 58 20 59 -65 22z m16 -127 c0 -42
-2 -45 -25 -43 -14 1 -25 6 -25 11 0 5 -12 7 -27 5 -16 -2 -27 -8 -26 -15 2
-7 -4 -10 -12 -6 -12 4 -13 9 -4 19 14 17 99 74 111 74 4 0 8 -20 8 -45z"/>
<path d="M2451 2168 c-5 -13 -7 -26 -4 -30 7 -13 -17 -48 -32 -48 -8 0 -15 -4
-15 -9 0 -5 22 -11 48 -15 27 -3 57 -13 68 -21 24 -18 34 -19 34 0 0 33 -63
145 -81 145 -5 0 -13 -10 -18 -22z"/>
<path d="M1525 2103 c0 -59 -24 -112 -52 -113 -7 0 -13 -4 -13 -10 0 -5 -9
-10 -19 -10 -11 0 -28 -10 -38 -23 -10 -13 -39 -33 -66 -46 -29 -14 -45 -27
-40 -34 3 -7 3 -9 -2 -5 -13 12 -64 -31 -101 -86 -46 -70 -60 -145 -45 -239 7
-39 21 -91 33 -115 46 -96 190 -218 301 -256 68 -23 71 -21 32 29 -19 26 -43
76 -55 114 -20 68 -21 69 -60 76 -21 4 -57 19 -78 35 -138 100 -70 321 99 322
84 1 141 -37 174 -114 28 -69 11 -135 -51 -199 -30 -31 -35 -42 -32 -74 12
-147 299 -79 396 93 22 40 22 41 2 47 -31 10 -79 54 -97 88 -22 44 -21 127 4
169 17 29 37 46 99 84 18 11 18 15 -14 76 -44 88 -123 173 -153 165 -16 -4
-19 -3 -11 5 8 8 9 15 1 25 -16 19 -28 16 -24 -6 2 -11 -3 -25 -11 -32 -10 -8
-14 -8 -14 0 0 6 4 11 10 11 5 0 7 7 4 15 -6 14 -8 13 -19 -2 -11 -14 -15 -15
-29 -4 -13 11 -123 71 -129 71 -2 0 -3 -26 -2 -57z"/>
<path d="M2245 2086 c-17 -7 -36 -25 -43 -40 -7 -15 -17 -24 -22 -21 -21 13
-89 -7 -124 -36 -31 -27 -34 -33 -25 -59 10 -28 22 -32 48 -16 10 7 12 5 6 -3
-5 -9 3 -12 31 -11 94 5 114 1 125 -23 8 -19 17 -23 45 -21 25 2 33 0 28 -9
-5 -9 -3 -9 7 1 14 13 47 16 74 6 13 -5 14 -8 3 -15 -10 -7 -11 -9 0 -9 8 0
10 -5 6 -12 -6 -10 -5 -10 7 -1 12 10 18 10 29 0 7 -6 10 -7 7 -1 -4 6 3 10
16 9 12 -1 22 -8 22 -16 0 -9 7 -23 17 -32 14 -14 18 -14 28 -2 6 8 14 31 17
52 10 81 -72 172 -154 173 -28 0 -33 3 -33 25 0 24 -31 65 -49 65 -5 0 -15 2
-23 5 -7 2 -27 -2 -43 -9z m272 -260 c-3 -7 0 -20 6 -27 10 -11 9 -11 -5 0
-15 11 -15 41 -1 41 3 0 3 -6 0 -14z"/>
<path d="M2005 1907 c-4 -10 -5 -21 -1 -24 10 -10 18 4 13 24 -4 17 -4 17 -12
0z"/>
<path d="M2193 1876 c-3 -6 -3 -8 2 -4 4 4 13 3 20 -2 8 -7 12 -5 12 3 0 16
-25 18 -34 3z"/>
<path d="M3066 1691 c-16 -3 -31 -12 -34 -18 -5 -16 0 -16 32 -2 20 10 32 8
65 -8 44 -22 57 -10 23 20 -19 18 -36 19 -86 8z"/>
<path d="M3056 1650 c6 -6 21 -6 39 -1 30 9 30 9 -9 10 -26 1 -37 -2 -30 -9z"/>
<path d="M3180 1642 c0 -11 5 -24 10 -27 6 -3 10 -19 10 -36 0 -34 14 -38 30
-9 12 23 3 45 -29 74 -21 19 -21 19 -21 -2z"/>
<path d="M2971 1627 c-24 -60 -24 -75 -2 -81 66 -19 62 -20 50 11 -6 15 -15
37 -20 48 -4 11 -10 27 -12 35 -3 10 -8 6 -16 -13z"/>
<path d="M3010 1645 c0 -23 26 -75 37 -75 8 0 6 12 -9 38 -26 45 -28 47 -28
37z"/>
<path d="M3127 1633 c-4 -3 -25 -6 -47 -5 -46 2 -51 -10 -14 -34 24 -16 27
-16 51 3 28 20 41 43 26 43 -6 0 -13 -3 -16 -7z"/>
<path d="M3136 1581 c-10 -11 -31 -23 -47 -26 -40 -9 -27 -25 20 -25 40 0 71
23 71 53 0 23 -23 21 -44 -2z"/>
<path d="M3156 1523 c-19 -10 -43 -13 -69 -10 -33 5 -38 3 -26 -8 26 -25 77
-23 110 4 31 25 22 33 -15 14z"/>
<path d="M2950 1519 c0 -6 13 -24 29 -40 25 -25 37 -29 83 -29 l53 0 -29 15
c-16 9 -40 27 -54 40 -25 25 -82 35 -82 14z"/>
<path d="M3185 1503 c-16 -13 -43 -36 -59 -49 l-28 -24 26 0 c39 0 74 20 86
51 18 42 9 50 -25 22z"/>
<path d="M2150 1371 c0 -5 7 -11 15 -15 9 -3 15 0 15 9 0 8 -7 15 -15 15 -8 0
-15 -4 -15 -9z"/>
<path d="M2157 1334 c-4 -4 -3 -12 2 -18 11 -13 -18 -135 -37 -159 -8 -9 -9
-18 -3 -21 5 -3 12 0 14 6 4 9 6 10 6 1 1 -6 -3 -15 -9 -18 -5 -3 -10 -17 -10
-30 0 -13 -10 -31 -22 -39 -12 -9 -20 -18 -17 -20 3 -3 35 -8 72 -12 79 -8 73
-26 49 163 -16 123 -28 163 -45 147z"/>
<path d="M2520 1234 c-2 -48 -9 -123 -14 -141 -6 -28 7 -37 34 -23 34 18 44
58 25 106 -15 40 -45 77 -45 58z"/>
<path d="M2730 1120 c-9 -6 -10 -10 -3 -10 6 0 15 5 18 10 8 12 4 12 -15 0z"/>
<path d="M3350 1088 c-92 -57 -192 -103 -296 -134 -78 -24 -107 -27 -234 -28
-80 -1 -164 2 -186 6 -39 7 -41 6 -41 -16 0 -40 83 -61 237 -61 112 1 134 4
205 29 100 36 216 102 312 178 40 32 73 60 73 63 0 7 1 8 -70 -37z"/>
<path d="M2666 1101 c-4 -6 -1 -21 6 -33 l13 -23 3 24 c4 26 -12 49 -22 32z"/>
<path d="M1635 1011 c-55 -10 -122 -26 -150 -36 -69 -24 -193 -89 -235 -125
l-35 -29 60 24 c96 38 225 51 358 37 124 -14 301 -48 480 -93 386 -97 614
-134 755 -124 51 3 105 10 120 15 15 5 46 14 69 20 35 9 40 13 36 33 -4 19 -3
20 7 5 9 -14 15 -15 35 -6 28 13 30 18 13 37 -9 10 -10 12 -1 7 13 -7 37 27
26 38 -10 10 -25 7 -18 -4 3 -6 -1 -7 -9 -4 -16 6 -17 25 -2 36 12 8 45 -32
39 -48 -2 -6 2 -11 9 -11 8 0 14 8 14 18 0 10 -4 15 -9 12 -5 -3 -7 3 -5 13 2
11 -3 19 -12 19 -8 1 -14 6 -13 13 2 8 -4 9 -20 3 -31 -12 -138 -44 -162 -48
-11 -2 -81 -4 -155 -4 -119 -1 -148 2 -250 29 -63 16 -181 54 -261 85 -220 83
-291 99 -449 103 -101 3 -160 -1 -235 -15z"/>
<path d="M2465 960 c3 -5 8 -10 11 -10 2 0 4 5 4 10 0 6 -5 10 -11 10 -5 0 -7
-4 -4 -10z"/>
<path d="M3325 944 c-9 -14 -15 -27 -13 -30 2 -2 12 10 22 26 21 37 15 40 -9
4z"/>
<path d="M2540 920 c0 -5 5 -10 11 -10 5 0 7 5 4 10 -3 6 -8 10 -11 10 -2 0
-4 -4 -4 -10z"/>
<path d="M1426 856 c-39 -7 -72 -18 -74 -24 -2 -6 -10 -8 -18 -5 -8 3 -14 0
-14 -7 0 -6 -4 -9 -9 -5 -5 3 -13 0 -17 -6 -4 -8 -3 -9 4 -5 16 9 15 -7 0 -22
-15 -15 -38 -16 -38 -1 0 6 7 8 18 4 14 -5 15 -4 4 7 -11 11 -19 7 -46 -24
-18 -21 -39 -38 -45 -38 -7 0 -9 -4 -6 -10 3 -6 -1 -7 -10 -4 -10 4 -29 -8
-55 -35 -44 -45 -51 -58 -21 -39 11 7 17 16 15 20 -3 4 0 9 5 9 6 1 14 2 19 3
13 3 56 29 70 43 7 7 20 13 27 13 8 0 32 9 54 21 58 30 134 50 234 62 102 12
185 -2 312 -52 42 -17 79 -31 83 -31 15 0 -96 68 -145 88 -118 50 -218 61
-347 38z"/>
<path d="M1459 519 c-27 -10 -49 -46 -49 -80 0 -31 44 -69 80 -69 36 0 80 38
80 70 0 17 -6 20 -40 20 -29 0 -40 -4 -40 -15 0 -9 9 -15 21 -15 18 0 19 -2 9
-15 -25 -31 -70 -11 -70 31 0 30 22 45 60 42 43 -4 49 17 9 31 -18 6 -32 11
-33 10 -1 0 -13 -5 -27 -10z"/>
<path d="M1912 524 c-41 -18 -33 -77 13 -88 14 -4 25 -11 25 -16 0 -16 -19
-21 -39 -11 -15 8 -20 7 -25 -6 -15 -37 63 -46 88 -11 24 33 20 46 -19 69 -35
21 -39 45 -5 34 16 -5 38 10 28 20 -7 7 -54 14 -66 9z"/>
<path d="M932 448 l3 -73 31 -3 c48 -5 84 13 84 42 0 14 -5 28 -10 31 -7 4 -7
12 -1 23 18 32 -5 52 -60 52 l-50 0 3 -72z m76 30 c-7 -19 -38 -22 -38 -4 0
10 9 16 21 16 12 0 19 -5 17 -12z m-3 -59 c0 -7 -8 -15 -17 -17 -18 -3 -25 18
-11 32 10 10 28 1 28 -15z"/>
<path d="M1080 455 c0 -71 11 -85 68 -85 44 0 62 27 62 93 0 50 -2 57 -20 57
-17 0 -20 -7 -20 -49 0 -49 -18 -79 -40 -66 -5 3 -10 31 -10 61 0 47 -2 54
-20 54 -18 0 -20 -7 -20 -65z"/>
<path d="M1240 445 c0 -68 2 -75 20 -75 17 0 20 7 20 46 l0 47 35 -47 c52 -68
65 -62 65 29 0 60 -3 75 -15 75 -11 0 -15 -12 -15 -46 l0 -47 -35 47 c-21 27
-44 46 -55 46 -18 0 -20 -7 -20 -75z"/>
<path d="M1590 462 c0 -67 18 -92 64 -92 55 0 66 14 66 85 0 58 -2 65 -20 65
-18 0 -20 -7 -20 -54 0 -30 -5 -58 -10 -61 -22 -13 -40 17 -40 66 0 42 -3 49
-20 49 -18 0 -20 -7 -20 -58z"/>
<path d="M1760 445 c0 -60 3 -75 15 -75 10 0 15 10 15 33 l0 32 20 -32 c12
-20 28 -33 40 -33 24 0 25 4 4 35 -14 21 -14 26 1 49 26 40 6 66 -50 66 l-45
0 0 -75z m65 25 c0 -8 -8 -16 -17 -18 -13 -2 -18 3 -18 18 0 15 5 20 18 18 9
-2 17 -10 17 -18z"/>
<path d="M2017 445 c-25 -73 -25 -75 -6 -75 11 0 22 7 25 15 4 8 18 15 34 15
16 0 30 -7 34 -15 5 -15 36 -22 36 -8 0 4 -10 37 -22 75 -20 62 -24 68 -49 68
-25 0 -29 -6 -52 -75z m65 10 c4 -20 1 -25 -14 -25 -14 0 -18 5 -14 16 3 9 6
20 6 25 0 20 18 7 22 -16z"/>
<path d="M2160 445 c0 -68 2 -75 20 -75 15 0 20 7 20 28 l1 27 17 -27 c9 -16
25 -28 34 -28 22 0 23 9 2 39 -16 22 -16 24 0 33 19 11 21 49 4 66 -7 7 -31
12 -55 12 l-43 0 0 -75z m68 28 c-5 -25 -28 -28 -28 -4 0 12 6 21 16 21 9 0
14 -7 12 -17z"/>
<path d="M2292 448 c3 -65 5 -73 23 -73 18 0 20 8 23 73 3 72 3 72 -23 72 -26
0 -26 0 -23 -72z"/>
<path d="M2430 445 l0 -75 70 0 c56 0 70 3 70 15 0 10 10 15 30 15 18 0 33 -6
36 -15 4 -8 15 -15 26 -15 21 0 21 3 -14 98 -18 48 -23 53 -46 50 -23 -3 -30
-12 -47 -60 -20 -56 -35 -82 -35 -60 0 7 -11 12 -25 12 -24 0 -25 3 -25 55 0
48 -2 55 -20 55 -18 0 -20 -7 -20 -75z m189 -2 c1 -7 -6 -13 -14 -13 -16 0
-19 17 -8 46 6 16 7 16 14 -2 4 -10 8 -25 8 -31z"/>
<path d="M2692 448 c3 -65 5 -73 23 -73 11 0 21 7 21 15 1 8 2 22 3 30 1 9 10
2 24 -17 13 -20 31 -33 45 -33 28 0 28 5 -3 42 -30 36 -30 38 -5 71 25 31 25
37 0 37 -11 0 -27 -12 -36 -26 -12 -18 -19 -22 -25 -13 -4 7 -5 18 -2 26 3 9
-3 13 -21 13 l-27 0 3 -72z"/>
<path d="M2842 448 l3 -73 45 0 c33 0 45 4 45 15 0 9 -11 16 -27 18 -35 4 -37
22 -3 22 31 0 34 27 3 32 -35 5 -34 28 1 28 21 0 31 5 31 15 0 11 -12 15 -50
15 l-51 0 3 -72z"/>
<path d="M3030 445 c0 -67 2 -76 18 -73 9 2 18 13 20 24 2 15 13 24 32 28 21
4 31 13 36 32 10 41 -7 59 -60 62 l-46 3 0 -76z m70 31 c0 -8 -7 -16 -15 -20
-10 -4 -15 1 -15 14 0 11 7 20 15 20 8 0 15 -6 15 -14z"/>
<path d="M3171 458 c-12 -34 -21 -68 -21 -75 0 -18 29 -16 36 2 4 8 18 15 34
15 16 0 30 -7 34 -15 7 -18 36 -20 36 -2 0 6 -10 40 -22 75 -19 55 -25 62 -49
62 -24 0 -29 -6 -48 -62z m59 13 c0 -5 3 -16 6 -25 4 -11 0 -16 -14 -16 -15 0
-18 5 -14 25 4 23 22 36 22 16z"/>
<path d="M3310 445 c0 -67 2 -75 19 -75 14 0 21 8 23 28 l4 27 14 -27 c9 -19
21 -28 37 -28 25 0 24 8 -4 41 -11 14 -11 18 2 29 18 15 20 51 3 68 -7 7 -31
12 -55 12 l-43 0 0 -75z m68 28 c-5 -25 -28 -28 -28 -4 0 12 6 21 16 21 9 0
14 -7 12 -17z"/>
<path d="M3450 444 c0 -66 2 -75 17 -72 10 2 20 15 23 31 l5 27 20 -30 c12
-18 29 -30 43 -30 28 0 28 5 -3 42 -30 36 -30 38 -5 71 25 31 25 37 1 37 -11
0 -29 -12 -40 -27 l-20 -28 -1 28 c0 20 -5 27 -20 27 -18 0 -20 -7 -20 -76z"/>
<path d="M2049 284 c-3 -10 -2 -35 1 -54 l6 -35 5 37 c6 43 -4 86 -12 52z"/>
<path d="M3089 284 c-3 -10 -2 -35 1 -54 l6 -35 5 37 c6 43 -4 86 -12 52z"/>
<path d="M1421 243 c1 -26 4 -38 6 -26 3 13 13 23 26 25 34 5 29 42 -5 46 -27
3 -28 2 -27 -45z m47 25 c-7 -19 -38 -22 -38 -4 0 10 9 16 21 16 12 0 19 -5
17 -12z"/>
<path d="M1842 245 c0 -27 2 -44 5 -37 4 10 8 10 21 0 15 -12 16 -11 3 5 -12
15 -11 20 5 40 10 12 12 16 4 10 -20 -18 -28 -16 -33 10 -2 12 -5 0 -5 -28z"/>
<path d="M2392 247 c-2 -45 -4 -48 -24 -42 -21 5 -21 5 -5 -6 27 -16 39 1 34
52 l-4 44 -1 -48z"/>
<path d="M2770 245 c0 -25 4 -45 9 -45 5 0 7 9 4 20 -4 15 0 20 16 20 23 0 29
-25 9 -33 -10 -4 -10 -6 -1 -6 18 -1 23 13 16 52 -5 31 -10 37 -29 37 -22 0
-24 -4 -24 -45z m38 23 c-6 -18 -28 -21 -28 -4 0 9 7 16 16 16 9 0 14 -5 12
-12z"/>
<path d="M1501 239 c-1 -26 4 -39 15 -43 25 -9 44 13 43 48 l-2 31 -6 -35 c-4
-22 -12 -35 -21 -35 -9 0 -17 13 -21 35 l-6 35 -2 -36z"/>
<path d="M1583 235 c0 -22 2 -30 4 -17 2 12 2 30 0 40 -3 9 -5 -1 -4 -23z"/>
<path d="M1600 266 c0 -2 7 -6 15 -10 8 -3 15 -1 15 4 0 6 -7 10 -15 10 -8 0
-15 -2 -15 -4z"/>
<path d="M1715 259 c-4 -6 -5 -12 -2 -15 2 -3 7 2 10 11 7 17 1 20 -8 4z"/>
<path d="M1752 258 c-14 -14 -16 -44 -4 -52 4 -2 8 8 7 22 0 20 5 27 20 27 15
0 20 -7 20 -27 -1 -16 3 -28 7 -28 4 0 8 15 8 33 0 27 -4 33 -23 35 -13 1 -29
-4 -35 -10z"/>
<path d="M1910 251 c-5 -11 -10 -22 -10 -25 0 -9 31 -36 42 -36 6 0 0 8 -12
18 -27 22 -18 55 14 50 16 -2 21 -10 21 -30 -1 -16 3 -28 7 -28 4 0 8 15 8 33
0 29 -3 33 -30 35 -20 2 -32 -4 -40 -17z"/>
<path d="M2001 233 c2 -35 2 -35 6 -8 3 16 10 33 16 37 8 5 6 8 -5 8 -14 0
-18 -8 -17 -37z"/>
<path d="M2102 258 c-14 -14 -16 -44 -3 -52 4 -3 6 6 3 19 -6 31 23 45 45 22
13 -13 14 -19 3 -31 -10 -13 -10 -16 4 -16 27 0 21 56 -6 64 -31 8 -32 8 -46
-6z"/>
<path d="M2430 256 c-14 -17 -5 -52 14 -59 31 -12 56 4 56 37 0 28 -4 32 -29
34 -16 1 -34 -4 -41 -12z m58 -22 c4 -27 -26 -40 -46 -20 -21 20 -8 48 20 44
14 -2 24 -11 26 -24z"/>
<path d="M2516 257 c3 -10 9 -15 12 -12 3 3 0 11 -7 18 -10 9 -11 8 -5 -6z"/>
<path d="M2604 245 l-7 -28 -17 23 -18 23 -7 -21 c-3 -12 -11 -20 -16 -17 -5
4 -9 2 -9 -4 0 -21 19 -20 25 1 l7 21 18 -23 17 -23 12 33 c6 18 9 35 7 38 -3
2 -8 -8 -12 -23z"/>
<path d="M2640 256 c-14 -17 -5 -52 14 -59 31 -12 56 4 56 37 0 28 -4 32 -29
34 -16 1 -34 -4 -41 -12z m58 -22 c4 -27 -26 -40 -46 -20 -21 20 -8 48 20 44
14 -2 24 -11 26 -24z"/>
<path d="M2862 258 c-14 -14 -16 -44 -4 -52 4 -2 8 8 7 22 0 20 5 27 20 27 15
0 20 -7 20 -27 -1 -16 3 -28 7 -28 15 0 8 58 -8 64 -22 8 -28 8 -42 -6z"/>
<path d="M2941 231 c1 -28 3 -30 6 -11 3 14 9 30 14 36 5 7 3 11 -6 11 -11 0
-15 -11 -14 -36z"/>
<path d="M2997 263 c-14 -13 -7 -25 8 -13 23 19 48 4 43 -25 -3 -14 -1 -25 3
-25 5 0 9 15 9 33 0 29 -3 33 -28 35 -16 1 -32 -1 -35 -5z"/>
<path d="M1660 240 c-10 -18 -14 -20 -21 -9 -5 8 -9 10 -9 4 0 -5 4 -16 9 -24
7 -11 11 -9 21 9 l13 23 11 -22 c11 -20 26 -19 26 2 0 6 -3 7 -7 3 -4 -3 -12
3 -19 15 l-11 22 -13 -23z"/>
<path d="M2990 221 c0 -10 29 -36 34 -30 1 2 -6 12 -16 22 -10 9 -18 13 -18 8z"/>
</g>
</svg>
