<?xml version="1.0" standalone="no"?>
<!DOCTYPE svg PUBLIC "-//W3C//DTD SVG 20010904//EN"
 "http://www.w3.org/TR/2001/REC-SVG-20010904/DTD/svg10.dtd">
<svg version="1.0" xmlns="http://www.w3.org/2000/svg"
 width="450.000000pt" height="250.000000pt" viewBox="0 0 450.000000 250.000000"
 preserveAspectRatio="xMidYMid meet">

<g transform="translate(0.000000,250.000000) scale(0.100000,-0.100000)"
fill="#000000" stroke="none">
<path d="M2195 2080 c-3 -5 -1 -10 4 -10 6 0 11 5 11 10 0 6 -2 10 -4 10 -3 0
-8 -4 -11 -10z"/>
<path d="M2098 1998 c-76 -74 -137 -165 -145 -213 -3 -19 -9 -35 -13 -35 -4 0
-13 -41 -20 -90 -10 -70 -10 -99 -1 -129 6 -21 11 -52 11 -68 0 -32 14 -47 73
-81 49 -28 62 -28 19 -1 -42 27 -34 35 20 21 74 -19 212 -35 253 -29 101 14
123 19 173 37 66 25 78 25 61 3 -7 -10 0 -6 16 9 l29 27 -25 20 c-13 11 -25
15 -27 10 -5 -14 -128 -47 -222 -59 -79 -11 -251 -7 -286 7 -26 10 -14 20 29
26 59 7 148 42 208 83 32 21 64 35 88 35 30 2 31 3 9 6 -34 5 -35 10 -2 54 56
74 104 212 104 298 l0 41 -57 -1 c-47 -1 -52 -3 -24 -8 l33 -6 -63 -29 c-83
-38 -140 -77 -213 -145 -56 -54 -156 -193 -170 -239 -4 -12 -12 -22 -18 -22
-12 0 -2 71 18 119 12 28 12 36 2 43 -10 6 -9 8 3 8 8 0 26 19 39 43 20 35 21
39 5 27 -17 -14 -18 -13 -11 15 17 72 98 202 160 257 17 16 26 28 19 28 -6 0
-40 -28 -75 -62z m342 -59 c0 -33 -44 -152 -75 -204 -78 -130 -215 -233 -374
-279 l-53 -16 5 29 c3 16 20 51 36 80 17 28 29 51 26 51 -2 0 6 10 18 23 12
12 40 43 63 67 81 90 188 179 269 225 63 36 85 42 85 24z"/>
<path d="M2245 1945 c-16 -8 -23 -14 -15 -14 8 0 26 6 40 14 32 18 15 18 -25
0z"/>
<path d="M2180 1922 c0 -5 -10 -13 -23 -19 -29 -13 -139 -114 -133 -121 3 -3
24 14 47 37 23 23 64 55 90 73 53 34 57 38 34 38 -8 0 -15 -4 -15 -8z"/>
<path d="M2388 1563 c7 -3 16 -2 19 1 4 3 -2 6 -13 5 -11 0 -14 -3 -6 -6z"/>
<path d="M2108 1333 c7 -3 16 -2 19 1 4 3 -2 6 -13 5 -11 0 -14 -3 -6 -6z"/>
<path d="M2228 1313 c17 -2 47 -2 65 0 17 2 3 4 -33 4 -36 0 -50 -2 -32 -4z"/>
<path d="M235 945 c0 -148 1 -155 20 -155 19 0 20 6 17 155 -3 138 -5 155 -20
155 -15 0 -17 -16 -17 -155z"/>
<path d="M379 1087 c25 -32 25 -82 -2 -113 -25 -28 -25 -28 -4 -39 11 -5 26
-24 33 -41 11 -27 11 -37 -5 -68 -21 -39 -17 -44 16 -21 26 19 38 67 23 95 -6
12 -26 30 -43 40 -18 11 -26 20 -19 20 22 0 52 39 52 68 0 27 -15 48 -50 67
-13 8 -13 6 -1 -8z"/>
<path d="M2578 1091 c11 -7 13 -40 10 -155 l-3 -146 23 0 c13 0 21 4 18 8 -8
13 -9 265 -1 285 6 14 2 17 -26 17 -23 0 -30 -3 -21 -9z"/>
<path d="M528 938 c-4 -80 14 -148 39 -148 12 0 12 2 -1 16 -12 12 -16 37 -16
110 0 110 -17 127 -22 22z"/>
<path d="M793 984 c12 -15 27 -32 32 -38 6 -6 36 -44 68 -85 32 -41 57 -65 57
-56 0 18 -42 77 -92 129 -15 17 -28 33 -28 37 0 13 -31 39 -46 39 -10 0 -8 -7
9 -26z"/>
<path d="M1037 978 c-13 -18 -27 -43 -30 -56 -8 -35 10 -86 40 -113 23 -20 25
-20 10 -2 -12 13 -21 45 -24 81 -5 51 -2 65 16 91 30 41 19 40 -12 -1z"/>
<path d="M1280 936 c0 -76 12 -125 33 -138 22 -14 31 -8 11 6 -16 13 -19 27
-19 110 0 70 -3 96 -12 96 -9 0 -13 -22 -13 -74z"/>
<path d="M1535 900 c0 -67 4 -110 10 -110 6 0 10 43 10 110 0 67 -4 110 -10
110 -6 0 -10 -43 -10 -110z"/>
<path d="M1638 998 c21 -21 14 -65 -13 -86 l-25 -20 33 -51 c17 -28 38 -51 45
-51 15 0 3 26 -35 76 l-23 31 25 17 c37 24 31 96 -9 96 -6 0 -5 -5 2 -12z"/>
<path d="M1855 1000 c3 -5 8 -10 11 -10 2 0 4 5 4 10 0 6 -5 10 -11 10 -5 0
-7 -4 -4 -10z"/>
<path d="M1997 1003 c-3 -5 7 -43 23 -84 16 -41 29 -86 30 -101 0 -21 5 -28
20 -28 22 0 24 -10 -25 105 -8 20 -15 43 -15 53 -1 24 -26 67 -33 55z"/>
<path d="M2150 900 c0 -81 3 -110 13 -110 9 0 11 27 9 110 -2 60 -7 110 -13
110 -5 0 -9 -48 -9 -110z"/>
<path d="M2260 984 c14 -36 13 -42 -15 -70 l-26 -25 32 -50 c18 -27 39 -49 47
-49 9 0 1 17 -23 51 l-36 51 25 23 c29 26 32 51 12 78 -19 25 -27 21 -16 -9z"/>
<path d="M2380 900 c0 -60 3 -110 8 -110 4 0 7 50 8 110 0 61 -3 110 -8 110
-4 0 -8 -49 -8 -110z"/>
<path d="M2933 982 c4 -18 18 -61 32 -96 14 -34 25 -70 25 -79 0 -9 5 -17 10
-17 14 0 13 6 -21 110 -31 98 -57 144 -46 82z"/>
<path d="M3082 900 c2 -80 6 -110 15 -110 10 0 13 29 13 110 0 91 -3 110 -15
110 -13 0 -15 -18 -13 -110z"/>
<path d="M3314 900 c0 -71 3 -110 10 -110 7 0 10 37 8 110 -2 60 -6 110 -10
110 -4 0 -7 -50 -8 -110z"/>
<path d="M3508 1004 c-5 -4 9 -48 48 -149 9 -25 11 -32 13 -47 1 -8 4 -9 11
-2 10 10 -12 81 -41 136 -5 10 -9 29 -9 43 0 24 -10 32 -22 19z"/>
<path d="M3724 900 c0 -73 3 -110 10 -110 7 0 11 37 11 110 0 67 -4 110 -10
110 -6 0 -10 -44 -11 -110z"/>
<path d="M3848 943 c2 -38 -1 -87 -6 -110 -8 -35 -7 -43 4 -43 11 0 14 23 14
110 0 61 -4 110 -8 110 -4 0 -6 -30 -4 -67z"/>
<path d="M4042 958 c11 -29 24 -66 28 -83 25 -90 26 -91 32 -69 3 12 -3 41
-12 65 -10 24 -24 65 -30 92 -7 26 -18 47 -25 47 -10 0 -8 -13 7 -52z"/>
<path d="M4172 918 c32 -99 47 -135 48 -108 0 19 -34 127 -43 136 -4 4 -7 20
-7 36 0 17 -5 28 -14 28 -11 0 -7 -21 16 -92z"/>
<path d="M1747 977 c-9 -32 7 -67 29 -67 9 0 12 -5 8 -12 -5 -8 -2 -9 9 -5 10
4 28 -4 47 -20 17 -14 33 -23 36 -21 11 12 -10 38 -44 53 -63 27 -67 31 -72
66 l-6 34 -7 -28z"/>
<path d="M3395 911 c-3 -5 -1 -12 5 -16 5 -3 10 1 10 9 0 18 -6 21 -15 7z"/>
<path d="M3921 911 c-10 -6 -10 -10 -1 -16 13 -8 24 -1 19 14 -3 6 -10 7 -18
2z"/>
<path d="M3130 903 c0 -18 81 -113 97 -113 10 0 1 17 -26 49 -47 56 -71 78
-71 64z"/>
<path d="M1175 841 c0 -60 21 -52 27 9 3 31 0 40 -12 40 -11 0 -15 -12 -15
-49z"/>
<path d="M1860 825 c0 -8 2 -15 4 -15 2 0 6 7 10 15 3 8 1 15 -4 15 -6 0 -10
-7 -10 -15z"/>
<path d="M2776 805 c-19 -15 -19 -15 2 -15 13 0 22 6 22 15 0 18 0 18 -24 0z"/>
<path d="M3975 800 c-3 -5 -1 -10 4 -10 6 0 11 5 11 10 0 6 -2 10 -4 10 -3 0
-8 -4 -11 -10z"/>
<path d="M963 505 c0 -27 2 -38 4 -22 2 15 2 37 0 50 -2 12 -4 0 -4 -28z"/>
<path d="M1628 480 c-2 -39 0 -70 5 -70 4 0 7 32 7 70 0 39 -2 70 -4 70 -2 0
-6 -32 -8 -70z"/>
<path d="M1723 495 c0 -33 2 -45 4 -27 2 18 2 45 0 60 -2 15 -4 0 -4 -33z"/>
<path d="M1921 534 c0 -11 3 -14 6 -6 3 7 2 16 -1 19 -3 4 -6 -2 -5 -13z"/>
<path d="M2378 480 c-2 -39 0 -70 5 -70 4 0 7 32 7 70 0 39 -2 70 -4 70 -2 0
-6 -32 -8 -70z"/>
<path d="M3213 495 c0 -33 2 -45 4 -27 2 18 2 45 0 60 -2 15 -4 0 -4 -33z"/>
<path d="M3428 480 c-2 -39 0 -70 5 -70 4 0 7 32 7 70 0 39 -2 70 -4 70 -2 0
-6 -32 -8 -70z"/>
<path d="M2711 524 c0 -11 3 -14 6 -6 3 7 2 16 -1 19 -3 4 -6 -2 -5 -13z"/>
<path d="M1931 494 c0 -11 3 -14 6 -6 3 7 2 16 -1 19 -3 4 -6 -2 -5 -13z"/>
<path d="M2533 475 c0 -22 2 -30 4 -17 2 12 2 30 0 40 -3 9 -5 -1 -4 -23z"/>
<path d="M3672 480 c0 -19 2 -27 5 -17 2 9 2 25 0 35 -3 9 -5 1 -5 -18z"/>
<path d="M622 480 c0 -14 2 -19 5 -12 2 6 2 18 0 25 -3 6 -5 1 -5 -13z"/>
<path d="M2192 485 c0 -11 3 -29 8 -40 11 -25 11 1 0 35 -6 20 -8 21 -8 5z"/>
<path d="M1871 464 c0 -11 3 -14 6 -6 3 7 2 16 -1 19 -3 4 -6 -2 -5 -13z"/>
<path d="M2430 463 c0 -6 9 -21 21 -34 l20 -24 -17 30 c-24 39 -24 40 -24 28z"/>
<path d="M3586 457 c3 -10 9 -15 12 -12 3 3 0 11 -7 18 -10 9 -11 8 -5 -6z"/>
<path d="M3772 450 c0 -14 2 -19 5 -12 2 6 2 18 0 25 -3 6 -5 1 -5 -13z"/>
<path d="M957 430 c-3 -11 -1 -20 4 -20 5 0 9 9 9 20 0 11 -2 20 -4 20 -2 0
-6 -9 -9 -20z"/>
<path d="M2740 425 c0 -8 4 -15 10 -15 5 0 7 7 4 15 -4 8 -8 15 -10 15 -2 0
-4 -7 -4 -15z"/>
<path d="M805 420 c-3 -5 -1 -10 4 -10 6 0 11 5 11 10 0 6 -2 10 -4 10 -3 0
-8 -4 -11 -10z"/>
<path d="M1170 420 c0 -5 5 -10 11 -10 5 0 7 5 4 10 -3 6 -8 10 -11 10 -2 0
-4 -4 -4 -10z"/>
<path d="M3065 420 c-3 -5 -1 -10 4 -10 6 0 11 5 11 10 0 6 -2 10 -4 10 -3 0
-8 -4 -11 -10z"/>
</g>
</svg>
