<?xml version="1.0" standalone="no"?>
<!DOCTYPE svg PUBLIC "-//W3C//DTD SVG 20010904//EN"
 "http://www.w3.org/TR/2001/REC-SVG-20010904/DTD/svg10.dtd">
<svg version="1.0" xmlns="http://www.w3.org/2000/svg"
 width="450.000000pt" height="250.000000pt" viewBox="0 0 450.000000 250.000000"
 preserveAspectRatio="xMidYMid meet">

<g transform="translate(0.000000,250.000000) scale(0.100000,-0.100000)"
fill="#000000" stroke="none">
<path d="M2050 2219 c-55 -10 -190 -59 -190 -68 0 -3 26 -21 58 -38 l57 -32
75 60 c108 87 111 89 75 88 -17 -1 -50 -5 -75 -10z"/>
<path d="M2415 2207 c16 -12 60 -48 97 -80 l68 -58 33 16 c17 8 43 24 56 34
l25 19 -50 25 c-48 24 -204 67 -241 67 -14 -1 -11 -5 12 -23z"/>
<path d="M2172 2103 c-57 -86 -56 -91 21 -92 l37 -1 0 85 c0 47 -2 85 -4 85
-2 0 -26 -35 -54 -77z"/>
<path d="M2290 2074 l0 -76 43 7 c23 4 44 9 46 11 4 4 -79 134 -85 134 -2 0
-4 -34 -4 -76z"/>
<path d="M2390 2137 c0 -9 52 -97 60 -102 11 -7 60 5 60 14 0 4 -21 23 -47 42
-56 41 -73 51 -73 46z"/>
<path d="M1730 2084 c-87 -57 -150 -114 -211 -192 -57 -70 -117 -169 -138
-224 l-10 -26 72 33 c288 131 302 139 334 191 17 28 56 78 87 111 l57 62 -57
36 c-32 20 -62 39 -68 41 -6 2 -36 -12 -66 -32z"/>
<path d="M2061 2076 c-15 -16 -19 -26 -11 -31 12 -7 39 22 40 43 0 17 -3 15
-29 -12z"/>
<path d="M2708 2066 c-25 -17 -55 -36 -64 -42 -17 -10 -14 -16 33 -70 62 -73
147 -196 198 -289 21 -38 39 -71 40 -72 1 -2 155 43 213 62 15 6 -13 65 -66
140 -49 68 -185 208 -252 259 l-55 42 -47 -30z"/>
<path d="M1916 1950 c-31 -34 -60 -69 -66 -80 -9 -17 -6 -18 56 -16 l65 3 29
54 c16 30 29 59 30 65 0 9 -40 34 -54 34 -2 0 -29 -27 -60 -60z"/>
<path d="M2530 1979 c-13 -6 -26 -12 -29 -14 -2 -3 20 -59 49 -125 52 -117 55
-120 89 -125 83 -13 132 -59 146 -137 4 -21 9 -38 11 -38 14 0 54 26 54 35 0
34 -266 417 -289 414 -3 0 -17 -5 -31 -10z"/>
<path d="M2060 1926 c-34 -81 -34 -84 2 -99 65 -28 115 -113 125 -212 5 -49 7
-53 24 -44 17 9 19 24 19 190 0 135 -3 180 -12 183 -7 2 -42 8 -77 13 l-63 9
-18 -40z"/>
<path d="M2290 1785 c0 -91 3 -165 6 -165 3 0 38 16 77 34 40 19 91 38 115 42
23 4 45 10 47 15 3 4 -20 60 -52 123 l-58 116 -67 0 -68 0 0 -165z"/>
<path d="M2680 1626 c0 -2 8 -10 18 -17 15 -13 16 -12 3 4 -13 16 -21 21 -21
13z"/>
<path d="M1603 1544 c-59 -21 -118 -89 -139 -160 -23 -81 -16 -231 15 -299 45
-102 122 -155 222 -155 83 0 139 27 181 88 32 46 58 130 58 190 l0 32 -145 0
-145 0 0 -54 0 -53 90 5 c100 5 106 1 75 -58 -20 -38 -63 -60 -118 -60 -59 0
-104 32 -136 95 -22 42 -26 63 -25 135 0 94 14 131 63 173 59 49 157 43 205
-13 21 -26 31 -30 75 -30 29 0 51 5 51 10 0 19 -37 84 -64 113 -14 15 -42 35
-61 43 -44 18 -147 17 -202 -2z"/>
<path d="M2722 1540 c0 -14 2 -19 5 -12 2 6 2 18 0 25 -3 6 -5 1 -5 -13z"/>
<path d="M2307 1433 c-10 -9 -8 -495 1 -510 6 -9 26 -7 82 11 41 13 94 29 118
35 l42 12 0 54 c0 30 -2 55 -4 55 -2 0 -38 -16 -80 -36 -43 -19 -84 -33 -92
-30 -11 4 -14 43 -14 211 l0 205 -23 0 c-13 0 -27 -3 -30 -7z"/>
<path d="M2713 1355 c0 -38 2 -53 4 -32 2 20 2 52 0 70 -2 17 -4 1 -4 -38z"/>
<path d="M2847 1358 c-4 -29 -7 -149 -7 -265 l0 -213 45 0 45 0 0 100 c0 55 4
100 8 100 4 0 30 -45 57 -100 27 -54 54 -101 59 -102 6 -2 30 -1 52 2 l41 5
-73 133 c-41 73 -74 138 -74 145 0 7 27 56 59 109 93 151 90 138 32 138 l-49
0 -47 -86 c-26 -47 -50 -83 -53 -79 -4 4 -7 41 -7 83 l0 77 -41 3 -41 3 -6
-53z"/>
<path d="M2703 1040 c0 -36 2 -50 4 -32 2 17 2 47 0 65 -2 17 -4 3 -4 -33z"/>
<path d="M1960 889 c0 -5 5 -7 10 -4 6 3 10 8 10 11 0 2 -4 4 -10 4 -5 0 -10
-5 -10 -11z"/>
<path d="M2682 821 c7 -9 14 -18 15 -20 2 -2 3 5 3 16 0 11 -7 20 -15 20 -12
0 -12 -3 -3 -16z"/>
<path d="M2501 791 c-15 -11 -18 -18 -8 -18 8 0 19 9 26 19 14 22 12 22 -18
-1z"/>
<path d="M1744 764 c-18 -14 -18 -15 4 -4 12 6 22 13 22 15 0 8 -5 6 -26 -11z"/>
<path d="M2988 773 c6 -2 18 -2 25 0 6 3 1 5 -13 5 -14 0 -19 -2 -12 -5z"/>
<path d="M2928 763 c7 -3 16 -2 19 1 4 3 -2 6 -13 5 -11 0 -14 -3 -6 -6z"/>
<path d="M1817 728 l-28 -21 27 -28 c15 -16 31 -29 35 -29 5 0 7 22 6 50 -1
27 -4 50 -7 50 -3 0 -18 -10 -33 -22z"/>
<path d="M2650 690 c-24 -19 -24 -19 -2 -13 12 3 25 10 28 15 11 18 -1 17 -26
-2z"/>
<path d="M2990 676 c-25 -7 -63 -20 -85 -28 -22 -8 -73 -23 -113 -33 -70 -17
-74 -19 -107 -70 -43 -65 -174 -191 -250 -242 -32 -20 -52 -39 -45 -41 24 -8
158 31 245 73 50 23 130 71 178 106 124 88 275 252 230 248 -5 0 -28 -6 -53
-13z"/>
<path d="M1646 624 c-47 -31 -86 -59 -86 -63 0 -10 66 -71 128 -120 112 -86
266 -154 376 -166 l51 -6 -29 23 c-149 117 -233 208 -302 326 -20 34 -40 62
-44 62 -4 0 -46 -25 -94 -56z"/>
<path d="M2358 637 l-68 -31 0 -139 c0 -119 2 -138 14 -128 20 16 107 144 146
214 l33 59 -20 26 c-10 14 -23 27 -29 28 -5 1 -39 -12 -76 -29z"/>
<path d="M1960 649 c0 -5 12 -9 27 -9 30 0 27 9 -6 15 -11 2 -21 0 -21 -6z"/>
<path d="M2125 581 c-46 -5 -59 -9 -57 -21 7 -30 142 -220 156 -220 3 0 6 56
6 125 0 142 14 127 -105 116z"/>
<path d="M2520 543 c-11 -25 -39 -73 -61 -106 -38 -56 -39 -59 -13 -39 38 27
179 170 173 175 -2 2 -21 7 -41 10 -37 6 -38 5 -58 -40z"/>
<path d="M1933 573 c-18 -2 -33 -7 -33 -10 0 -19 173 -183 193 -183 5 0 -1 15
-12 33 -12 17 -37 62 -57 100 -19 37 -40 66 -47 65 -6 0 -27 -3 -44 -5z"/>
</g>
</svg>
