<?xml version="1.0" standalone="no"?>
<!DOCTYPE svg PUBLIC "-//W3C//DTD SVG 20010904//EN"
 "http://www.w3.org/TR/2001/REC-SVG-20010904/DTD/svg10.dtd">
<svg version="1.0" xmlns="http://www.w3.org/2000/svg"
 width="450.000000pt" height="250.000000pt" viewBox="0 0 450.000000 250.000000"
 preserveAspectRatio="xMidYMid meet">

<g transform="translate(0.000000,250.000000) scale(0.100000,-0.100000)"
fill="#000000" stroke="none">
<path d="M2303 1309 c-1 -60 -4 -113 -7 -116 -16 -17 -57 48 -96 155 -7 19
-19 32 -29 32 -15 0 -17 -12 -17 -82 0 -46 -4 -112 -9 -147 -7 -59 -7 -63 11
-59 10 2 20 12 21 23 1 11 5 47 8 80 l7 59 22 -37 c76 -126 122 -97 127 80 3
86 -7 123 -30 123 -4 0 -8 -50 -8 -111z"/>
<path d="M1395 1363 c-37 -39 -95 -167 -95 -211 0 -40 27 -80 60 -87 34 -8 67
9 106 54 25 28 48 81 36 82 -11 1 31 17 46 18 9 1 4 -11 -12 -30 -14 -17 -26
-35 -26 -40 0 -20 31 -20 48 -1 23 27 97 40 105 18 7 -18 67 -23 67 -5 0 6 5
7 13 2 16 -10 58 -4 76 10 12 10 13 8 9 -10 -8 -32 9 -39 35 -15 30 27 95 38
103 17 8 -20 64 -21 64 0 0 8 -4 15 -10 15 -5 0 -10 7 -10 15 0 8 -4 15 -9 15
-5 0 -12 12 -15 28 -23 91 -27 102 -45 102 -13 0 -26 -19 -46 -64 -21 -49 -33
-64 -49 -64 -11 -1 -35 -4 -52 -7 l-31 -7 5 55 c3 35 0 57 -7 62 -16 9 -41
-13 -39 -33 4 -47 -3 -102 -13 -102 -5 0 -8 4 -4 9 3 6 -3 14 -13 20 -11 6
-22 31 -30 70 -15 73 -38 82 -63 23 -15 -36 -19 -38 -85 -51 -38 -8 -87 -20
-108 -28 -22 -7 -41 -11 -44 -8 -3 2 3 25 12 49 12 31 29 52 52 67 25 15 34
27 32 42 -5 33 -24 30 -63 -10z m554 -150 c1 -7 -8 -13 -19 -13 -23 0 -25 9
-8 46 l13 27 6 -24 c4 -13 7 -30 8 -36z m-309 2 c0 -8 -9 -15 -20 -15 -11 0
-20 7 -20 15 0 8 9 15 20 15 11 0 20 -7 20 -15z m-186 -59 c-16 -20 -42 -41
-58 -48 -25 -10 -30 -9 -42 7 -24 32 -17 52 17 53 17 0 36 5 42 10 11 10 58
20 65 16 2 -2 -9 -19 -24 -38z"/>
<path d="M2403 1272 c-18 -37 -42 -79 -55 -95 -17 -21 -19 -30 -10 -39 9 -9
17 -7 34 9 31 28 103 40 111 19 8 -21 67 -22 67 -1 0 8 -7 15 -16 15 -8 0 -13
4 -9 9 3 6 -4 15 -15 21 -11 6 -20 20 -20 32 0 41 -23 98 -39 98 -10 0 -28
-26 -48 -68z m51 -44 c5 -24 3 -28 -14 -28 -22 0 -25 12 -9 42 12 23 14 22 23
-14z"/>
<path d="M3163 1323 c-3 -10 -16 -41 -28 -69 -20 -46 -26 -52 -61 -57 -22 -4
-50 -7 -64 -7 -24 0 -23 2 18 39 75 69 48 110 -60 91 -94 -17 -145 -50 -103
-66 9 -4 15 -19 15 -38 0 -36 19 -77 38 -84 10 -3 12 9 6 57 -4 42 -3 65 6 76
13 16 77 31 87 21 4 -4 -12 -26 -35 -49 -60 -61 -40 -98 45 -82 27 5 38 2 48
-12 13 -17 14 -17 37 5 14 12 33 22 44 22 10 0 26 5 34 10 10 6 20 3 33 -11
20 -21 26 -23 47 -9 12 8 12 10 -3 16 -9 3 -15 10 -12 14 3 4 -1 10 -9 13 -7
3 -19 29 -26 59 -18 74 -43 101 -57 61z m31 -114 c-3 -5 -14 -9 -25 -9 -19 0
-19 1 -3 32 17 32 17 32 25 9 5 -12 7 -27 3 -32z"/>
<path d="M2696 1313 c-3 -4 -46 -12 -94 -17 -66 -8 -87 -15 -87 -26 0 -9 11
-16 28 -18 21 -3 27 -9 27 -27 0 -63 37 -97 60 -55 9 16 8 22 -5 26 -10 4 -14
17 -13 35 2 25 6 29 34 29 18 0 39 3 48 6 13 5 14 1 6 -26 -9 -32 0 -73 19
-84 12 -8 51 10 64 28 5 7 12 5 21 -6 16 -22 30 -23 45 -4 8 9 8 16 2 20 -5 4
-13 27 -17 51 -5 35 -10 45 -25 45 -11 0 -19 -5 -19 -11 0 -23 -33 -79 -46
-79 -17 0 -18 20 -3 53 18 39 -18 87 -45 60z"/>
<path d="M2970 974 c0 -24 4 -34 13 -31 6 2 12 9 11 15 -1 7 -2 21 -2 32 -3
35 -22 21 -22 -16z"/>
<path d="M2557 993 c-10 -10 -8 -53 2 -53 5 0 12 6 14 13 4 10 6 10 6 0 1 -7
6 -13 11 -13 6 0 9 11 7 25 -3 27 -17 46 -17 24 0 -11 -2 -11 -8 -1 -5 7 -11
9 -15 5z"/>
<path d="M2647 993 c-4 -3 -7 -17 -7 -30 0 -21 1 -22 19 -6 11 9 17 22 14 29
-6 15 -16 18 -26 7z"/>
<path d="M2714 975 c-4 -15 -2 -31 4 -37 18 -18 38 -2 37 28 0 39 -32 46 -41
9z"/>
<path d="M2806 978 c-9 -35 -8 -38 15 -38 16 0 20 5 17 27 -4 34 -24 41 -32
11z"/>
<path d="M2893 988 c-16 -23 -10 -53 12 -53 15 0 20 7 20 29 0 32 -16 44 -32
24z"/>
</g>
</svg>
