<?xml version="1.0" standalone="no"?>
<!DOCTYPE svg PUBLIC "-//W3C//DTD SVG 20010904//EN"
 "http://www.w3.org/TR/2001/REC-SVG-20010904/DTD/svg10.dtd">
<svg version="1.0" xmlns="http://www.w3.org/2000/svg"
 width="450.000000pt" height="250.000000pt" viewBox="0 0 450.000000 250.000000"
 preserveAspectRatio="xMidYMid meet">

<g transform="translate(0.000000,250.000000) scale(0.100000,-0.100000)"
fill="#000000" stroke="none">
<path d="M2125 2326 c-203 -40 -368 -153 -477 -326 -195 -309 -120 -732 169
-949 123 -92 240 -136 390 -148 341 -26 659 202 743 533 25 95 26 147 4 165
-11 9 -54 16 -121 19 l-103 5 0 -25 c0 -14 -3 -42 -6 -62 l-7 -38 63 0 63 0
-6 -37 c-9 -53 -68 -169 -116 -226 -120 -144 -277 -217 -466 -217 -109 0 -185
18 -278 67 -137 72 -242 196 -293 348 -34 100 -38 245 -10 340 57 193 190 337
381 412 64 25 82 27 200 27 115 0 138 -3 197 -26 160 -61 276 -165 349 -315
38 -77 48 -88 72 -91 35 -4 67 22 67 53 0 35 -74 174 -129 241 -88 109 -236
203 -376 239 -86 22 -227 27 -310 11z"/>
<path d="M2138 2080 c-117 -30 -242 -129 -296 -236 -38 -76 -55 -134 -39 -135
14 -1 32 -4 67 -13 24 -7 27 -3 38 40 29 106 155 224 241 224 20 0 34 -7 41
-19 6 -13 10 -155 10 -394 0 -425 -4 -407 81 -407 64 0 89 21 89 75 0 39 -3
44 -30 54 l-30 10 0 313 c0 172 3 323 6 334 3 12 15 26 27 31 66 30 227 -102
257 -209 13 -47 28 -56 46 -29 9 13 20 18 27 14 43 -27 45 9 4 95 -44 93 -124
172 -223 219 -70 33 -85 37 -178 39 -55 2 -118 -1 -138 -6z"/>
<path d="M1842 1681 c-11 -7 -11 -9 0 -14 9 -3 15 1 15 9 0 8 -1 14 -1 14 -1
0 -7 -4 -14 -9z"/>
<path d="M1617 730 c-140 -36 -226 -145 -227 -290 0 -143 77 -246 214 -285 75
-22 173 -15 244 15 80 35 83 41 80 166 l-3 109 -50 0 -50 0 -3 -91 c-3 -90 -3
-92 -31 -104 -47 -19 -136 -14 -188 11 -67 33 -103 94 -103 176 0 80 25 133
82 170 37 25 51 28 123 28 71 0 86 -3 121 -26 l40 -26 34 28 34 29 -23 24
c-53 57 -200 89 -294 66z"/>
<path d="M2070 440 l0 -290 55 0 55 0 2 191 3 191 155 -191 155 -191 48 0 47
0 0 290 0 290 -55 0 -55 0 0 -190 c0 -104 -3 -190 -7 -189 -5 0 -77 85 -161
190 l-153 189 -44 0 -45 0 0 -290z"/>
<path d="M2740 440 l0 -290 205 0 205 0 0 45 0 45 -150 0 -150 0 0 245 0 245
-55 0 -55 0 0 -290z"/>
</g>
</svg>
