<?xml version="1.0" standalone="no"?>
<!DOCTYPE svg PUBLIC "-//W3C//DTD SVG 20010904//EN"
 "http://www.w3.org/TR/2001/REC-SVG-20010904/DTD/svg10.dtd">
<svg version="1.0" xmlns="http://www.w3.org/2000/svg"
 width="450.000000pt" height="250.000000pt" viewBox="0 0 450.000000 250.000000"
 preserveAspectRatio="xMidYMid meet">

<g transform="translate(0.000000,250.000000) scale(0.100000,-0.100000)"
fill="#000000" stroke="none">
<path d="M3435 1598 c-2 -7 -6 -33 -7 -58 l-3 -45 -1655 -5 -1655 -5 -3 -249
c-2 -175 1 -253 9 -262 10 -12 274 -14 1660 -14 l1649 0 0 -55 0 -55 40 0 40
0 0 55 0 55 453 2 452 3 3 262 2 263 -452 2 -453 3 -5 55 c-5 54 -6 55 -38 58
-20 2 -34 -2 -37 -10z m-5 -368 l0 -240 -1645 0 -1645 0 0 240 0 240 1645 0
1645 0 0 -240z m970 0 l0 -240 -445 0 -445 0 0 240 0 240 445 0 445 0 0 -240z"/>
<path d="M290 1312 c0 -69 15 -101 22 -44 3 24 7 27 43 27 36 0 40 -3 43 -27
7 -57 22 -25 22 44 0 44 -4 68 -9 63 -5 -6 -11 -21 -13 -35 -3 -22 -8 -25 -43
-25 -35 0 -40 3 -43 25 -2 14 -8 29 -13 35 -5 5 -9 -19 -9 -63z"/>
<path d="M532 1367 c-13 -17 -52 -107 -52 -121 0 -6 7 -3 14 7 8 11 27 17 51
17 24 0 43 -6 51 -17 21 -28 16 0 -10 60 -28 61 -39 73 -54 54z m29 -70 c-5
-5 -17 -7 -26 -3 -13 5 -14 10 -4 28 11 21 12 21 25 3 9 -12 11 -22 5 -28z"/>
<path d="M677 1373 c-11 -10 -8 -133 2 -133 5 0 11 12 13 28 5 41 42 43 63 3
8 -17 20 -31 25 -31 13 0 13 6 -2 30 -10 15 -9 22 5 38 23 25 21 38 -5 56 -22
16 -89 22 -101 9z m90 -29 c7 -19 -13 -34 -44 -34 -25 0 -37 15 -29 35 8 21
65 19 73 -1z"/>
<path d="M854 1366 c-10 -25 1 -119 14 -124 8 -2 12 7 12 27 0 30 1 31 45 31
35 0 47 4 56 22 10 18 8 24 -11 40 -27 22 -108 25 -116 4z m101 -31 c0 -16 -7
-20 -35 -20 -29 0 -36 4 -38 23 -3 21 0 23 35 20 30 -2 38 -7 38 -23z"/>
<path d="M1034 1366 c-3 -7 -4 -38 -2 -67 l3 -54 65 -1 c61 -1 62 -1 15 5 -42
5 -51 10 -53 29 -3 19 1 22 30 23 l33 1 -30 7 c-21 4 -31 13 -33 29 -3 20 1
22 43 22 28 0 44 4 40 10 -10 16 -105 12 -111 -4z"/>
<path d="M1214 1366 c-3 -7 -4 -38 -2 -67 3 -55 18 -69 28 -27 9 35 37 34 58
-1 9 -17 23 -31 31 -31 10 0 9 6 -4 27 -16 24 -16 27 -1 38 22 17 20 52 -3 65
-29 15 -101 13 -107 -4z m99 -20 c8 -20 -17 -38 -45 -34 -15 2 -24 11 -26 26
-3 19 1 22 31 22 21 0 37 -6 40 -14z"/>
<path d="M1487 1373 c-11 -10 -8 -133 2 -133 5 0 11 12 13 28 2 22 9 28 33 30
63 5 75 11 75 37 0 14 -8 29 -19 35 -22 11 -94 14 -104 3z m100 -29 c7 -20
-13 -34 -49 -34 -30 0 -43 13 -34 35 8 21 75 20 83 -1z"/>
<path d="M1660 1323 c0 -33 5 -64 12 -71 7 -7 30 -12 53 -12 23 0 46 5 53 12
14 14 16 118 2 118 -5 0 -10 -22 -10 -50 0 -58 -24 -80 -66 -61 -21 9 -24 18
-24 60 0 27 -4 53 -10 56 -6 4 -10 -16 -10 -52z"/>
<path d="M1857 1373 c-4 -3 -7 -35 -7 -70 0 -47 3 -64 13 -61 6 3 13 17 15 31
5 38 38 36 60 -3 24 -43 44 -41 21 1 -8 16 -7 25 5 38 20 22 20 35 0 55 -15
16 -94 23 -107 9z m92 -27 c9 -10 8 -16 -3 -25 -23 -19 -61 -10 -64 17 -3 18
1 22 26 22 16 0 35 -6 41 -14z"/>
<path d="M2120 1356 c-6 -14 -15 -38 -20 -53 -12 -31 -23 -23 -40 30 -6 20
-16 37 -21 37 -13 0 -12 -7 13 -72 13 -32 28 -58 35 -58 6 0 17 17 23 38 19
58 28 59 49 9 11 -26 24 -47 29 -47 5 0 19 26 31 59 23 65 25 71 13 71 -5 0
-14 -18 -21 -40 -16 -56 -27 -57 -47 -5 -21 57 -31 63 -44 31z"/>
<path d="M2290 1313 c-17 -36 -28 -69 -24 -72 3 -3 10 2 15 12 7 11 22 17 49
17 27 0 42 -6 49 -17 5 -10 12 -15 15 -12 8 8 -53 139 -65 139 -5 0 -22 -30
-39 -67z m54 11 c10 -26 7 -34 -14 -34 -13 0 -20 7 -20 18 0 33 23 44 34 16z"/>
<path d="M2455 1368 c-9 -24 -1 -123 10 -123 5 0 12 13 15 30 7 42 32 42 61 0
23 -34 39 -44 39 -26 0 5 -11 23 -25 39 -30 36 -31 44 -5 60 11 7 20 17 20 22
0 6 -19 -4 -42 -21 l-43 -31 -3 24 c-5 31 -20 45 -27 26z"/>
<path d="M2673 1368 c-14 -18 -53 -108 -53 -122 0 -6 7 -3 14 7 17 22 91 24
100 2 3 -8 10 -15 15 -15 11 0 -34 107 -54 128 -10 11 -14 11 -22 0z m28 -71
c-5 -5 -17 -7 -26 -3 -13 5 -14 10 -4 28 11 21 12 21 25 3 9 -12 11 -22 5 -28z"/>
<path d="M2817 1373 c-11 -10 -8 -133 2 -133 5 0 11 12 13 28 5 41 42 43 63 3
8 -17 20 -31 25 -31 14 0 12 14 -2 28 -10 10 -8 19 6 44 19 31 19 31 -4 50
-22 17 -90 25 -103 11z m88 -38 c0 -15 -8 -21 -29 -23 -33 -4 -51 10 -42 33 9
25 71 16 71 -10z"/>
<path d="M2980 1370 c0 -5 11 -10 24 -10 28 0 36 -16 36 -76 0 -24 5 -44 10
-44 6 0 10 27 10 60 0 57 1 60 25 60 14 0 25 5 25 10 0 6 -28 10 -65 10 -37 0
-65 -4 -65 -10z"/>
<path d="M3178 1358 c-13 -21 -48 -102 -48 -113 0 -3 5 -5 10 -5 6 0 10 7 10
15 0 11 12 15 44 15 30 0 46 -5 50 -15 3 -8 10 -15 15 -15 11 0 -34 107 -54
128 -10 11 -15 9 -27 -10z m33 -61 c-5 -5 -17 -7 -26 -3 -13 5 -14 10 -4 28
11 21 12 21 25 3 9 -12 11 -22 5 -28z"/>
<path d="M1767 1153 c-4 -3 -7 -21 -7 -40 0 -24 4 -33 17 -33 12 0 14 3 6 11
-14 14 -4 57 16 62 12 4 10 5 -5 6 -11 0 -24 -2 -27 -6z"/>
<path d="M1970 1151 c0 -5 9 -7 20 -4 11 3 20 7 20 9 0 2 -9 4 -20 4 -11 0
-20 -4 -20 -9z"/>
<path d="M2168 1148 c6 -7 12 -26 14 -43 3 -26 4 -25 9 13 4 36 2 42 -14 42
-14 0 -17 -3 -9 -12z"/>
<path d="M1420 1140 c0 -5 5 -10 10 -10 6 0 10 5 10 10 0 6 -4 10 -10 10 -5 0
-10 -4 -10 -10z"/>
<path d="M1530 1134 c0 -8 5 -12 10 -9 6 3 10 10 10 16 0 5 -4 9 -10 9 -5 0
-10 -7 -10 -16z"/>
<path d="M1640 1140 c0 -5 4 -10 9 -10 5 0 11 -10 14 -22 4 -12 9 -19 13 -15
4 4 1 18 -6 32 -13 25 -30 33 -30 15z"/>
<path d="M1885 1140 c-3 -5 -1 -10 4 -10 6 0 11 5 11 10 0 6 -2 10 -4 10 -3 0
-8 -4 -11 -10z"/>
<path d="M2090 1139 c0 -5 5 -7 10 -4 6 3 10 8 10 11 0 2 -4 4 -10 4 -5 0 -10
-5 -10 -11z"/>
<path d="M2013 1125 c-7 -8 -9 -16 -4 -19 5 -3 12 1 15 10 8 22 4 25 -11 9z"/>
<path d="M1820 1113 c0 -12 -6 -24 -12 -26 -8 -4 -9 -6 -2 -6 19 -2 34 23 24
39 -8 12 -10 11 -10 -7z"/>
<path d="M1906 1121 c-4 -6 0 -18 8 -27 12 -12 16 -12 16 -2 0 22 -17 42 -24
29z"/>
<path d="M1960 1109 c0 -11 5 -17 10 -14 6 3 10 13 10 21 0 8 -4 14 -10 14 -5
0 -10 -9 -10 -21z"/>
<path d="M2110 1118 c0 -9 5 -20 11 -23 17 -11 18 -2 3 19 -12 17 -14 17 -14
4z"/>
<path d="M1406 1103 c-6 -14 -5 -15 5 -6 7 7 10 15 7 18 -3 3 -9 -2 -12 -12z"/>
<path d="M1440 1111 c0 -5 7 -11 14 -14 10 -4 13 -1 9 9 -6 15 -23 19 -23 5z"/>
<path d="M1560 1106 c0 -9 5 -16 10 -16 6 0 10 4 10 9 0 6 -4 13 -10 16 -5 3
-10 -1 -10 -9z"/>
<path d="M1620 1110 c0 -5 5 -10 10 -10 6 0 10 5 10 10 0 6 -4 10 -10 10 -5 0
-10 -4 -10 -10z"/>
<path d="M1870 1110 c0 -5 5 -10 11 -10 5 0 7 5 4 10 -3 6 -8 10 -11 10 -2 0
-4 -4 -4 -10z"/>
<path d="M1500 1100 c0 -5 5 -10 10 -10 6 0 10 5 10 10 0 6 -4 10 -10 10 -5 0
-10 -4 -10 -10z"/>
<path d="M2070 1099 c0 -5 5 -7 10 -4 6 3 10 8 10 11 0 2 -4 4 -10 4 -5 0 -10
-5 -10 -11z"/>
<path d="M1340 1090 c-13 -8 -12 -10 3 -10 9 0 17 5 17 10 0 12 -1 12 -20 0z"/>
<path d="M4055 1260 c3 -5 8 -10 11 -10 2 0 4 5 4 10 0 6 -5 10 -11 10 -5 0
-7 -4 -4 -10z"/>
<path d="M3690 1246 c0 -8 -6 -17 -12 -19 -10 -4 -10 -6 0 -6 6 -1 12 -6 12
-12 0 -5 -4 -7 -10 -4 -5 3 -10 1 -10 -4 0 -6 7 -11 15 -11 10 0 15 11 15 35
0 19 -2 35 -5 35 -3 0 -5 -6 -5 -14z"/>
<path d="M3910 1245 c0 -8 -8 -15 -17 -16 -14 0 -15 -2 -3 -6 8 -3 18 -11 22
-17 4 -6 8 4 8 22 0 17 -2 32 -5 32 -3 0 -5 -7 -5 -15z"/>
<path d="M4210 1240 c0 -19 3 -21 12 -12 9 9 9 15 0 24 -9 9 -12 7 -12 -12z"/>
<path d="M3751 1243 c0 -4 4 -17 9 -28 8 -19 9 -19 9 2 1 12 -3 25 -9 28 -5 3
-10 3 -9 -2z"/>
<path d="M4246 1232 c-4 -13 -5 -26 -2 -29 10 -11 18 4 14 29 l-4 23 -8 -23z"/>
<path d="M3980 1200 c-13 -8 -12 -10 3 -10 9 0 17 5 17 10 0 12 -1 12 -20 0z"/>
<path d="M4130 1200 c0 -6 7 -10 15 -10 8 0 15 2 15 4 0 2 -7 6 -15 10 -8 3
-15 1 -15 -4z"/>
</g>
</svg>
