<?xml version="1.0" standalone="no"?>
<!DOCTYPE svg PUBLIC "-//W3C//DTD SVG 20010904//EN"
 "http://www.w3.org/TR/2001/REC-SVG-20010904/DTD/svg10.dtd">
<svg version="1.0" xmlns="http://www.w3.org/2000/svg"
 width="450.000000pt" height="250.000000pt" viewBox="0 0 450.000000 250.000000"
 preserveAspectRatio="xMidYMid meet">

<g transform="translate(0.000000,250.000000) scale(0.100000,-0.100000)"
fill="#000000" stroke="none">
<path d="M3832 1664 c-20 -8 -33 -9 -40 -2 -15 15 -29 3 -36 -33 -21 -108 86
-198 184 -154 37 17 40 21 40 57 0 39 -27 106 -52 125 -22 17 -65 21 -96 7z"/>
<path d="M3067 1533 c-4 -3 -7 -22 -7 -40 0 -29 -5 -36 -30 -44 -22 -8 -30
-17 -30 -35 0 -19 7 -26 30 -30 l30 -6 0 -130 c0 -176 19 -208 125 -208 35 0
45 4 50 20 9 29 -2 40 -39 40 -62 0 -71 16 -74 135 -5 147 -2 155 52 155 78 0
71 56 -7 62 -42 3 -42 3 -45 46 -3 36 -6 42 -26 42 -12 0 -26 -3 -29 -7z"/>
<path d="M525 1446 c-37 -16 -70 -52 -84 -89 -14 -37 -15 -294 0 -302 5 -4 21
-4 35 -1 l24 6 0 138 c0 132 1 140 23 160 23 22 68 29 101 16 32 -12 41 -49
46 -184 l5 -135 30 0 30 0 3 140 c2 125 5 142 23 161 12 12 32 25 45 28 25 7
76 -14 91 -36 4 -7 10 -76 13 -153 l5 -140 30 0 30 0 3 125 c2 73 -2 142 -9
167 -27 100 -154 145 -233 82 l-26 -21 -52 26 c-58 29 -89 32 -133 12z"/>
<path d="M1235 1455 c-5 -2 -22 -6 -37 -9 -77 -17 -135 -121 -125 -222 12
-117 71 -175 184 -182 38 -3 82 1 104 8 34 11 39 17 39 43 0 27 -2 29 -27 23
-78 -17 -130 -18 -161 -2 -39 20 -62 53 -62 88 l0 27 128 3 127 3 -1 63 c-1
70 -19 105 -70 133 -30 17 -81 29 -99 24z m80 -90 c16 -15 25 -36 25 -55 l0
-30 -95 0 -95 0 0 26 c0 15 12 38 29 55 39 39 100 41 136 4z"/>
<path d="M1617 1446 c-85 -23 -136 -96 -137 -192 0 -125 90 -206 210 -190 27
4 51 3 53 -1 3 -5 0 -24 -7 -43 -15 -48 -68 -67 -144 -50 -30 7 -55 10 -57 8
-2 -2 -6 -15 -10 -29 -6 -23 -2 -27 33 -37 86 -26 173 -9 222 43 25 26 25 28
28 246 l3 220 -33 13 c-53 22 -109 26 -161 12z m123 -75 c11 -22 14 -200 2
-218 -13 -20 -63 -34 -98 -27 -67 12 -106 86 -89 166 15 68 53 97 127 98 37 0
50 -4 58 -19z"/>
<path d="M1991 1449 c-53 -10 -65 -20 -57 -47 6 -19 13 -20 79 -15 86 6 115
-10 119 -67 l3 -35 -75 -6 c-115 -8 -154 -38 -154 -119 0 -54 17 -81 68 -107
39 -20 162 -14 199 10 l27 17 0 140 c0 85 -5 149 -12 165 -24 53 -111 82 -197
64z m130 -229 c14 -8 19 -21 19 -55 0 -52 -16 -65 -82 -65 -56 0 -88 22 -88
60 0 55 91 91 151 60z"/>
<path d="M2395 1453 c-73 -15 -105 -51 -105 -117 0 -50 37 -89 112 -116 78
-28 88 -36 88 -70 0 -37 -43 -55 -108 -46 -26 3 -56 7 -67 8 -15 2 -21 -4 -23
-23 -3 -22 2 -29 29 -38 18 -6 59 -11 91 -11 97 0 148 39 148 115 0 58 -19 78
-110 115 -92 37 -110 58 -85 97 17 25 20 26 90 20 74 -5 85 -1 85 34 0 19
-102 41 -145 32z"/>
<path d="M2750 1447 c-52 -17 -76 -37 -104 -88 -43 -74 -32 -203 22 -262 47
-53 154 -72 244 -45 34 10 39 15 36 37 -3 28 -4 28 -94 16 -88 -13 -153 26
-157 93 l-2 27 130 5 130 5 -1 56 c-1 35 -8 68 -20 88 -36 60 -117 90 -184 68z
m114 -83 c16 -17 26 -38 26 -56 l0 -29 -97 3 c-98 3 -98 3 -95 28 1 14 16 37
32 53 41 37 97 37 134 1z"/>
<path d="M3551 1449 c-52 -10 -64 -20 -59 -45 3 -17 12 -19 78 -16 90 5 118
-11 122 -68 l3 -35 -75 -6 c-83 -6 -108 -16 -139 -55 -39 -50 -22 -121 38
-161 42 -28 139 -31 201 -7 l40 16 0 144 c0 88 -5 153 -12 169 -24 53 -111 82
-197 64z m130 -229 c24 -13 26 -81 3 -104 -23 -24 -109 -21 -134 4 -46 46 -4
110 72 110 22 0 48 -5 59 -10z"/>
<path d="M3310 1245 l0 -196 33 3 32 3 0 190 0 190 -32 3 -33 3 0 -196z"/>
<path d="M3980 852 c0 -17 -6 -22 -28 -22 -37 0 -52 -17 -52 -56 0 -40 18 -55
61 -51 l34 2 3 64 c2 36 -2 69 -7 74 -8 8 -11 4 -11 -11z m-2 -70 c5 -33 -15
-54 -39 -41 -19 9 -26 49 -12 63 15 15 48 1 51 -22z"/>
<path d="M3348 854 c-11 -10 -10 -122 0 -128 4 -2 14 -1 21 3 9 6 10 11 2 15
-17 11 -13 56 5 63 20 8 48 -8 52 -30 2 -8 -7 -25 -20 -37 -21 -20 -21 -22 -3
-18 11 2 24 13 31 25 l11 23 21 -25 c12 -14 28 -25 36 -25 22 0 46 11 46 21 0
6 -7 6 -18 0 -26 -14 -39 -1 -40 37 0 25 3 32 19 32 12 0 19 -7 19 -19 0 -26
16 -35 24 -15 8 21 8 20 -10 38 -22 23 -51 20 -76 -9 l-21 -25 -11 23 c-8 14
-22 23 -43 25 -19 2 -33 9 -35 18 -2 9 -6 12 -10 8z"/>
<path d="M2646 834 c-3 -8 -10 -13 -15 -10 -5 4 -21 2 -35 -4 -22 -8 -26 -16
-26 -50 0 -22 5 -40 10 -40 6 0 10 13 10 28 0 32 16 52 42 52 13 0 18 -8 18
-28 0 -23 27 -79 30 -62 2 7 2 103 1 118 -1 17 -28 15 -35 -4z"/>
<path d="M2353 823 c-9 -3 -13 -28 -13 -76 0 -65 2 -70 13 -47 8 14 20 24 30
22 31 -5 57 17 57 48 0 47 -41 72 -87 53z m65 -44 c2 -15 -4 -31 -13 -39 -14
-11 -19 -10 -37 7 -17 17 -18 24 -8 42 16 31 54 25 58 -10z"/>
<path d="M2471 816 c-10 -12 -6 -14 20 -13 30 2 33 -1 33 -28 0 -24 -5 -31
-23 -33 -18 -3 -22 0 -18 12 4 10 1 16 -9 16 -10 0 -14 -8 -12 -22 3 -20 9
-23 48 -23 l45 0 -3 40 c-2 22 -8 46 -14 53 -14 16 -53 15 -67 -2z"/>
<path d="M2733 823 c-20 -4 -23 -11 -23 -49 0 -54 18 -59 22 -6 3 32 6 37 28
37 22 0 25 -5 28 -37 4 -50 22 -49 22 0 0 56 -15 67 -77 55z"/>
<path d="M2836 814 c-34 -34 -9 -94 39 -94 13 0 27 5 31 12 5 7 1 9 -13 6 -27
-7 -61 11 -42 22 10 7 10 12 1 23 -14 16 -6 27 20 27 11 0 18 -7 18 -20 0 -11
7 -20 15 -20 18 0 20 31 3 48 -17 17 -54 15 -72 -4z"/>
<path d="M2958 823 c-14 -3 -18 -15 -18 -51 l1 -47 14 40 c8 22 15 41 15 43 0
1 7 2 16 2 8 0 12 5 9 10 -6 10 -9 11 -37 3z"/>
<path d="M3073 823 c-20 -4 -23 -11 -23 -49 0 -54 18 -59 22 -6 2 30 7 38 26
40 20 3 22 -1 22 -37 0 -22 5 -43 10 -46 6 -4 10 13 10 43 0 47 -12 66 -38 61
-4 -1 -17 -4 -29 -6z"/>
<path d="M3176 814 c-34 -33 -8 -98 34 -87 14 4 20 0 20 -11 0 -11 -9 -16 -31
-16 -17 0 -28 -4 -24 -10 3 -5 20 -10 36 -10 36 0 43 15 44 90 0 54 0 54 -32
57 -19 2 -38 -4 -47 -13z m57 -18 c11 -27 -4 -57 -27 -54 -36 5 -34 68 3 68
10 0 21 -6 24 -14z"/>
<path d="M3639 795 c-14 -39 -30 -41 -39 -5 -3 13 -11 25 -18 28 -16 5 -15 -7
3 -38 18 -31 19 -72 3 -88 -9 -9 -8 -12 4 -12 22 0 86 134 68 145 -5 3 -14
-11 -21 -30z"/>
<path d="M3694 822 c-32 -22 -25 -89 11 -98 37 -9 65 12 65 49 0 18 -5 38 -12
45 -13 13 -47 16 -64 4z m51 -47 c0 -25 -4 -30 -25 -30 -16 0 -26 6 -28 18 -6
30 6 49 30 45 18 -2 23 -9 23 -33z"/>
<path d="M3808 823 c-14 -3 -18 -15 -18 -49 0 -54 18 -59 22 -6 2 29 7 37 23
37 16 0 21 -8 23 -35 5 -54 22 -61 22 -9 0 62 -17 77 -72 62z"/>
<path d="M3010 775 c0 -25 5 -45 10 -45 6 0 10 20 10 45 0 25 -4 45 -10 45 -5
0 -10 -20 -10 -45z"/>
</g>
</svg>
