<?xml version="1.0" standalone="no"?>
<!DOCTYPE svg PUBLIC "-//W3C//DTD SVG 20010904//EN"
 "http://www.w3.org/TR/2001/REC-SVG-20010904/DTD/svg10.dtd">
<svg version="1.0" xmlns="http://www.w3.org/2000/svg"
 width="450.000000pt" height="250.000000pt" viewBox="0 0 450.000000 250.000000"
 preserveAspectRatio="xMidYMid meet">

<g transform="translate(0.000000,250.000000) scale(0.100000,-0.100000)"
fill="#000000" stroke="none">
<path d="M1420 1845 c-10 -12 -10 -21 0 -44 29 -72 8 -164 -59 -256 -82 -113
-398 -455 -420 -455 -15 0 -24 257 -12 339 12 81 49 182 92 251 34 54 26 63
-51 54 -147 -16 -232 -48 -305 -115 -79 -73 -108 -196 -60 -249 23 -25 32 -25
45 0 8 15 7 32 -5 66 -12 35 -13 54 -5 83 14 53 91 126 160 152 65 25 125 35
133 22 3 -5 -8 -30 -24 -55 -54 -84 -69 -143 -69 -285 0 -138 18 -383 30 -396
3 -4 47 36 96 90 49 53 160 171 247 261 235 245 312 375 293 491 -9 54 -58 80
-86 46z"/>
<path d="M2229 1503 c-19 -16 -47 -44 -64 -63 -16 -19 -43 -48 -58 -65 l-28
-30 5 30 c3 17 9 52 12 79 l7 49 -39 -7 c-55 -11 -132 -55 -162 -94 -13 -18
-23 -34 -21 -37 3 -2 24 12 48 31 87 69 89 50 21 -225 -27 -111 -50 -204 -50
-206 0 -10 79 -5 85 5 3 5 19 65 36 131 16 68 43 148 61 181 38 71 102 131
166 154 66 24 87 46 73 73 -16 29 -53 27 -92 -6z"/>
<path d="M3864 1505 c-11 -8 -41 -15 -70 -15 -103 0 -193 -53 -277 -162 -125
-161 -138 -376 -24 -386 44 -4 85 16 155 75 29 25 55 43 58 40 3 -3 0 -23 -7
-45 -14 -47 -7 -72 19 -72 42 0 117 35 158 75 47 45 62 81 22 51 -51 -37 -88
-50 -100 -38 -15 15 14 167 67 350 44 153 44 161 -1 127z m-78 -88 c8 -7 -59
-237 -82 -285 -31 -64 -91 -112 -139 -112 -48 0 -60 22 -58 104 2 85 21 142
71 215 45 67 97 94 161 86 25 -3 46 -6 47 -8z"/>
<path d="M1678 1500 c-141 -24 -282 -265 -266 -455 9 -104 76 -132 190 -81 53
23 168 111 168 127 0 18 -32 8 -85 -27 -64 -43 -133 -56 -154 -30 -20 23 -27
112 -11 131 7 8 50 33 95 54 128 60 195 130 195 204 0 59 -53 90 -132 77z m32
-69 c18 -35 11 -75 -18 -107 -36 -39 -98 -81 -136 -90 -24 -6 -28 -4 -23 12 3
11 13 45 21 76 22 77 66 128 112 128 23 0 37 -6 44 -19z"/>
<path d="M2485 1476 c-190 -89 -284 -430 -142 -516 107 -66 280 26 360 190 28
58 31 75 32 155 0 75 -4 96 -22 125 -45 73 -133 91 -228 46z m103 -38 c33 -36
42 -73 42 -167 0 -102 -15 -161 -58 -223 -52 -76 -120 -87 -164 -27 -27 35
-40 139 -27 218 25 157 141 269 207 199z"/>
<path d="M2941 1475 c-51 -24 -128 -91 -117 -102 3 -3 24 9 48 26 36 26 78 41
78 27 0 -6 -53 -239 -83 -363 l-25 -103 22 -1 c36 -2 61 3 67 12 3 5 16 56 29
112 34 155 47 190 87 237 44 51 117 100 150 100 33 0 30 -35 -11 -178 -51
-175 -61 -235 -46 -272 15 -36 43 -39 98 -11 43 22 122 88 122 102 0 17 -22 9
-57 -21 -41 -36 -70 -39 -78 -7 -4 13 15 96 44 197 67 231 66 270 -4 270 -35
0 -104 -41 -183 -107 -29 -25 -55 -43 -58 -40 -3 3 -1 22 5 44 6 21 11 53 11
71 0 27 -4 32 -22 32 -13 0 -47 -12 -77 -25z"/>
<path d="M1740 685 c0 -30 5 -55 10 -55 6 0 10 11 10 25 0 21 5 25 30 25 25 0
30 -4 30 -25 0 -14 5 -25 10 -25 6 0 10 25 10 55 0 30 -4 55 -10 55 -5 0 -10
-9 -10 -20 0 -16 -7 -20 -30 -20 -23 0 -30 4 -30 20 0 11 -4 20 -10 20 -5 0
-10 -25 -10 -55z"/>
<path d="M2010 685 c0 -30 5 -55 10 -55 6 0 10 25 10 55 0 30 -4 55 -10 55 -5
0 -10 -25 -10 -55z"/>
<path d="M2198 685 l4 -55 39 0 c21 0 39 5 39 10 0 6 -13 10 -30 10 -29 0 -30
2 -30 45 0 29 -4 45 -12 45 -9 0 -12 -16 -10 -55z"/>
<path d="M2430 685 l0 -55 45 0 c25 0 45 5 45 10 0 6 -16 10 -35 10 -35 0 -35
0 -35 45 0 25 -4 45 -10 45 -5 0 -10 -25 -10 -55z"/>
<path d="M2682 731 c-24 -15 -9 -44 26 -53 44 -12 42 -31 -3 -26 -40 5 -48 -8
-11 -18 31 -7 68 12 64 34 -2 9 -18 21 -36 27 -39 11 -42 27 -4 25 40 -3 49 0
27 10 -26 11 -47 12 -63 1z"/>
</g>
</svg>
